<svg id="Layer_1" data-name="Layer 1" xmlns="http://www.w3.org/2000/svg" viewBox="0 0 768 640.8"><defs><style>.cls-1{stroke:#fff;stroke-width:0.25px;}.cls-1,.cls-2{stroke-miterlimit:10;}.cls-2{fill:#fff;stroke:#ec1e27;}.cls-3{fill:#ec1e27;}.cls-4{fill:#f69220;}.cls-5{fill:#f05a26;}.cls-6{font-size:90px;font-family:GillSansMT-Condensed, Gill Sans MT Condensed;letter-spacing:-0.01em;}</style></defs><title>Artboard 1</title><path d="M903.38,407.77a21.57,21.57,0,0,1-5.36.49c-7.7.23-15.41.33-23.11.69-1.05,0-2.06,1.32-3.07,2-2.66,1.89-5.31,1.85-7.13-.89-3.28-4.93-5.38-2.62-8.3.53-4.72,5.09-12.87,9.17-19,1.43a16.41,16.41,0,0,0-6.61-4.62c-1.81-.73-4.61-.94-6.18,0-9.73,5.65-20.4,4.55-30.85,4.67-8,.09-10.89-7.9-16.44-11.74-6.79-4.71-12-11.39-21.52-10.66-2.77.21-5.73-.95-8.48-1.85-8.06-2.65-13-.82-17.16,6.56a20.26,20.26,0,0,1-2.54,3.41c-2.09,2.35-5,4.28-6.26,7-3,6.55-5.12,13.49-7.79,20.2-2.59,6.49-5.41,12.89-7.89,18.74-4.82-2.41-8.88-4.24-12.69-6.48-1-.59-1.67-2.42-1.77-3.74-.82-10.47-1.63-20.94-2.14-31.42-.58-12.11-.82-24.23-1.3-36.34-.12-3.14-.6-6.27-.92-9.4l-2-.06c-2.57,8.17-2.91,16.67-3.37,25.28-.48,9.17-1.94,18.31-3.31,27.41-.44,2.95-2.45,2.51-4.35.79-4.09-3.69-8-7.6-12.44-10.86s-9.58-1.7-12.7,2.75c-1.56,2.23-3.2,4.41-4.81,6.6-5.61,7.64-7.5,7.88-15.73,3a9.26,9.26,0,0,0-6.41-1.18c-5.72,1.58-11.25,3.83-16.61,5.74-8.25-4.89-16.52-9.82-24.83-14.69a4.65,4.65,0,0,0-1.46-.51c-.1,1.49-.21,3-.31,4.48.57.31,1.14.66,1.72,1,3.29,2.18,7.05,3.64,10.58,5.48,3,1.56,6.49,2.64,8.78,4.92,3.78,3.77,6.9,3.59,11.63,1.56,5.94-2.54,12-7.33,19.2-1.59,5.13,4.11,8.72,3.24,13-2,3-3.66,5.73-7.5,8.54-11.29,2.11-2.84,4.83-3.59,7.5-1.29,4.31,3.73,8.21,7.93,12.45,11.75,1.5,1.35,3.64,3.22,5.17,3s3.32-2.56,4.27-4.35,1-4,1.59-6.41c4.56,2.07,3.56,5.79,3.88,9,.84,8.4,1.65,16.81,2.79,25.17.18,1.32,1.89,3.31,3.08,3.46,4,.49,7.13,1.91,9.5,5.33.31.44,3.26-.32,4.46-1.22,6.64-5,6.59-13.36,9.62-20.18,4.39-9.87,4.49-22,15.31-28.48,1.29-.77,2.07-2.52,2.89-3.92,3.34-5.7,5.29-6.07,11.51-3.84,4.33,1.56,9.07,2,13.58,3.08,2.43.59,5.27.95,7.06,2.45,6,5.05,11.68,10.59,17.53,15.89a5.58,5.58,0,0,0,2.72,1.53c5.15.65,10.21,4.73,15.56.48.49-.39,1.75,0,2.58.24a23,23,0,0,0,17.47-2c5.78-3.2,8.7-1.67,12.54,2.08,7.31,7.16,7.94,7.17,17.29,2.72,1.6-.76,3-2.3,4.6-2.63,2.2-.45,5.23-1,6.74.14,3.44,2.52,6,2.78,9-.31,2.68-2.71,5.86-3.25,9.53-1.69,1.73.73,4.54,1.58,5.6.75,4-3.1,8.09-2,12.45-2,5-.05,10-2,15.09-.5.2.06.64-.71,1-1.1C910.68,406.18,909.41,406,903.38,407.77Z"/><path class="cls-1" d="M181,386.6a20.68,20.68,0,0,0-16.92,3.77c-2.71,2-4.59,5.11-7.36,6.93-7.34,4.83-10.79,11.92-13.07,20a11.43,11.43,0,0,1-3.65,5.81c-4.62,3.44-9.63,6.34-14.69,9.59a2.3,2.3,0,0,1-.73-1.22c-.76-12.93-8-24.09-8.88-37.36-1-16.39-2.35-32.53.48-48.82.4-2.33-1.08-5-1.69-7.48l-2.72.28a73.19,73.19,0,0,0-2.35,8.69C107.2,361.86,105.28,377,103,392c-.46,3-2,5.86-3.42,8.58-1.66,3.12-4.06,4.4-6.69.88-2.12-2.83-3.82-2.18-6.3-.22a11.57,11.57,0,0,1-6.7,2.44c-11.48,0-23-.37-34.42-.87a16.39,16.39,0,0,1-7.54-2.1c-3-1.84-5.35-1.91-8.52-.24A15,15,0,0,1,21,402.05c-8.69-1.07-17.28-3.1-26-4-7.55-.79-13.4-6.75-21.61-5.9a27,27,0,0,1-14.51-2.69c-4.79-2.51-7.77-1.17-11.13,1.62-3.9,3.23-7.82,3.36-11.91.32a26.52,26.52,0,0,0-3.75-2c-1.21,3.93-.45,2.94,3.65,6.08,5.9,4.54,9.4,1.69,13.85-1.62,1.62-1.2,4.39-1.45,6.54-1.22,5.12.55,10.16,1.7,15.26,2.48,3,.47,7-.36,9,1.29,4.94,4.07,10.73,5.12,16.46,6.18,8.85,1.64,17.84,2.54,26.79,3.58,1.12.13,2.39-.71,3.53-1.24,3.65-1.71,6.79-1.27,10.81.08,6.52,2.19,13.68,2.5,20.61,3.35,1,.13,2.18-1.42,3.36-1.59,2.44-.34,5.78-1.35,7.26-.19,6,4.7,11.42,2.19,17.21.09a9.77,9.77,0,0,1,5.64-.12c6,1.69,9.26.81,11.33-4.85,1.64-4.48,2.06-9.41,2.89-14.17.34-2,.32-4,.47-6,1.62.79,2.2,1.63,2.4,2.55,1.81,8.38,3.38,16.82,5.37,25.16s4.23,16.86,6.76,25.17a8,8,0,0,0,4.39,4.79c1.19.38,4-1.66,4.8-3.26,2-3.92,4.48-6.49,8.95-7.95,3.85-1.26,7.28-4.16,7.28-9.22,0-1.2.72-2.4,1.09-3.61,3-9.79,11.21-15.25,18.2-21.68,4.81-4.42,9.88-5.07,15-4C181,388.57,181,387.59,181,386.6Z"/><path class="cls-2" d="M503.55,266.28a3.81,3.81,0,0,1-4.63,0c-15.06-11.19-32.09-13.72-49.59-14.24-1.54,0-3.14,2.06-4.71,3.17,1.57,1.1,3.12,3.09,4.72,3.15,13.88.45,27.42,2.5,40,9.3,8.52,4.61,10,7.32,8.61,17.33-1.1,8-2.58,16-4,24.06a3.75,3.75,0,0,1-4.76,3c-9-2.8-17.38-5.78-26-7.39-12.46-2.34-25.15-3.25-37.76-4.68a10.82,10.82,0,0,0-5,.38c-1.74.68-3.21,2.14-4.8,3.26,1.77,1,3.56,2.94,5.29,2.88,19-.68,37.53,2.47,55.71,8.29.4.13.84.17,1.24.3,18.11,6.14,24.84,24,13.81,41-8.74,13.49-13.77,28.21-19.05,43.3a41.27,41.27,0,0,1-21.71,24.14c-11.21,5.05-17.43,2-23-11-.76-1.76-3.08-2.74-4.68-4.09-.28,2.26-1.4,4.92-.67,6.71,2.6,6.46,5.61,12.82.08,19-7.37,8.27-15.92,14.6-27.06,14.42-6-.1-8.76-5.41-8.85-10.76-.23-13.67-.22-27.45,1.24-41,.48-4.49,4.92-9.85,8.87-12.28,12.76-7.82,26.32-11.1,40.58-3.7,1.41.73,3.59-.29,5.41-.5-.93-1.76-1.44-4.32-2.84-5.16-11.15-6.65-22.93-5.63-34.48-1.81-4.56,1.51-8.9,3.83-13.84,6.41a3.77,3.77,0,0,1-5.43-3.81c.72-8.06,1.38-15.89,2.42-23.66.79-5.87,4.54-9.65,9.73-11.62,15.76-6,31.59-5.74,47.22.19,1.17.45,2.05,1.79,2.88,3.35a3.71,3.71,0,0,0,6.32.44c3.1-4.38,5.27-11.41,3.67-15.12-.39-.9-1.48-2.06-2.2-2a3.88,3.88,0,0,0-3,1.74,11.28,11.28,0,0,0-.67,2.21,3.76,3.76,0,0,1-4.79,2.86c-17.92-5.48-35.65-6.53-53.6,1.16a3.74,3.74,0,0,1-5.09-3c-2.06-13.93-2.72-27.48,3.51-40.55,3.55-7.46,9.93-11.23,17.33-12.49,17-2.91,33.71-2,49.85,5.36,1.7.77,4.06-.16,6.12-.31-1.18-1.8-2-4.41-3.6-5.27-13.7-7.36-28.5-8-43.38-7.31a122.74,122.74,0,0,0-13.52,1.79,3.85,3.85,0,0,1-4.21-2.68c-5-15,5.36-32.09,20.87-31.9,1.06,0,2.23.45,3.15.1a40.22,40.22,0,0,0,5-2.68c-1.49-1.28-2.83-3.35-4.49-3.7-13.07-2.75-25.33,5.07-29.25,19-1.39,4.93-2.89,10.7-1.8,15.39,1,4.48.81,8.13-.55,11.36-1.6,3.78-7.22,2.22-7.12-1.9.32-12.32,1.53-24.2,6.48-35.31,6.19-13.89,18.47-17.76,31.33-18.16,27.15-.85,51.48,8.43,73.26,25.59a40,40,0,0,1,5.44,5.46C508.32,260.26,508.64,262.3,503.55,266.28Z"/><path class="cls-2" d="M510.75,428.79a3.72,3.72,0,0,1,5.28-1.34,42.69,42.69,0,0,0,4.08,2.37c7.39,3.68,9.71,7.56,6.52,15.75-2.56,6.55-6.22,13.28-11,18-8.95,8.79-19.48,15.21-31.75,17.67-2,.41-3.75,2.74-5.61,4.18,2.33.81,4.81,2.59,7,2.22a55.81,55.81,0,0,0,7.3-1.87,3.85,3.85,0,0,1,4.24,5.85,34.1,34.1,0,0,1-10.17,9.46C470.73,511.27,453,514.74,435,516.51a135.3,135.3,0,0,1-24.09.11c-13.73-1.11-20.63-7.74-21.64-20.94a3.82,3.82,0,0,1,5.82-3.64c.76.48,1.52.93,2.31,1.35,22,11.73,44,9.23,65.48-1.31,3.62-1.77,5.89-7.19,8.19-11.31.53-.95-1.45-3.51-2.27-5.34a43.2,43.2,0,0,0-3.68,3.65c-2,2.46-3.32,6.3-5.77,7.44-18.08,8.39-36.58,11.27-55.39,2.64-12-5.51-18.35-17-17.65-31.4a3.81,3.81,0,0,1,4.87-3.45c12.16,3.39,22.12-3.12,31.44-11a49.44,49.44,0,0,1,22.57-11.07c11.87-2.25,22.19-9,28.16-20.91,4.7-9.4,8.27-19.46,12.33-29.24.78-1.87,1.49-3.78,2.26-5.66,7.09-17.31,13.11-19,26.37-6.26,5.12,4.9,8.88,11.44,13.4,17.1a35.23,35.23,0,0,0,4.67,4.15c.22-2.44,1.36-5.37.5-7.24-5.55-12.08-14.4-20.72-25.48-26.74-.63-.34-1.28-.64-1.88-.89a3.81,3.81,0,0,1-2.27-3.26c-.9-12.25-2.06-24.13-2.39-36-.34-12.49,4.89-15.82,15-10.36,11.94,6.44,22.16,15,29.63,27.24,1.11,1.81,3.8,2.48,5.76,3.68-.28-2.4.11-5.22-.93-7.14-7.69-14.11-19.86-22.82-32.63-30.73-2.38-1.47-4.87-2.76-7.15-4.4-5.75-4.15-8.75-14.71-5.35-21.09a9.94,9.94,0,0,1,7.11-4.67c5-.21,10.39,0,14.88,2a59,59,0,0,1,20.35,14.94c3.09,3.47-1.57,8.49-5.16,5.59q-1.52-1.23-3.06-2.43c-1.65-1.29-4.4-.93-6.64-1.33,1.19,2.27,1.86,5.34,3.65,6.68,9.48,7.13,18.4,14.72,23.64,26.24,6,13.21,4.36,31.42-2.62,41.82a3.78,3.78,0,0,1-6.06.42c-5.66-6.66-11.28-13.3-17-19.87a10.33,10.33,0,0,0-4.09-3.16c-1.27-.42-2.89.35-4.35.59.24,1.42,0,3.37.8,4.18,3.2,3.32,6.79,6.19,10.09,9.4,17.2,16.75,15,46.76,6.5,62.86-3.94,7.42-10.11,10.52-17.2,6.92-6.46-3.28-12-8.86-17.68-13.71-3.13-2.65-5.65-6.13-8.84-8.67-.94-.75-3.2.42-4.86.7.55,1.52.72,3.49,1.71,4.49,11.4,11.46,11.14,21.75-1,32.53-9.37,8.33-19.93,13.64-32.07,15.3-2.16.3-5,1.21-6.12,2.91-6.87,10.58-16.95,13.65-28,15.31-2.6.39-5,2.6-7.44,4,2.71.82,5.46,2.49,8.11,2.32,12-.78,22.75-4.78,30.79-15.26,1.15-1.5,3.5-2.3,5.42-2.69,13.43-2.72,25.67-8.37,35.34-18.82C505.2,439.06,507.79,434,510.75,428.79Z"/><path class="cls-2" d="M568.24,424.23c11.41,23.51,3.32,58.61-15.35,71.94-7,5-14.71,5.13-22.6,3.09-2-.53-4.07-1.62-6.1-1.61-1.36,0-2.73,1.47-4.09,2.28.76,1.44,1.23,3.73,2.32,4.16,3.62,1.41,6.51,3,6.92,7.77.07.78,2.57,2.14,2.74,2a51.14,51.14,0,0,0,3.73-4.92,3.77,3.77,0,0,1,2.79-1.6l2.43-.18a3.87,3.87,0,0,1,3.19,6.29c-6.72,8.77-14.83,14.79-24.57,17.72a3.72,3.72,0,0,1-4.46-2.32l-1-2.54a1.3,1.3,0,0,0-2-.61,39.89,39.89,0,0,0-3.73,3c-1.89,1.8-3.39,4.14-5.39,5.75-11.67,9.39-37.07,8-47.73-2.76a29.16,29.16,0,0,1-3.83-5.18,3.9,3.9,0,0,1,2.28-5.85,50.62,50.62,0,0,1,7.27-1.44c1.42-.14,3,1.5,4.49,2.38,4.18,2.48,8.24,5.24,12.6,7.28,1.05.49,3.05-1.38,4.62-2.17-1.06-1.44-1.86-3.38-3.23-4.2a83.84,83.84,0,0,0-9-4.18v-1.9a44.16,44.16,0,0,0,5.4-2.32c7-4.14,14.66-7.51,20.73-12.92a32.83,32.83,0,0,0,9.68-16.26c1.33-6,4.13-8.74,8.57-10.32a98.68,98.68,0,0,1,16.55-4.42c18.14-3,29.6-14.78,33.28-34.39C565.38,432.27,566.78,428.94,568.24,424.23Z"/><path class="cls-2" d="M534.07,435a3.9,3.9,0,0,1,2.41-3.16c14.31-6.09,16.67-20.44,18.86-34.89a13.91,13.91,0,0,0,.19-4.78c-2.26-10.7,1-19.14,7.48-26.58a3.79,3.79,0,0,1,6.14.7c10.25,17.46,13.43,36.29,7.58,56.92l-2.07.29c-.31-4-.89-8-.88-12,0-5.69.68-11.38.55-17.06,0-1.3-2.17-2.53-3.33-3.8-.84,1.39-2.49,2.84-2.4,4.15.85,11.57-.66,22.3-8.19,31.29a5.57,5.57,0,0,0-1,3.16c-.55,17.74-11.2,30.38-26.34,33.79a3.81,3.81,0,0,1-4.16-5.44,47.83,47.83,0,0,0,3.26-8.15C533.35,444.91,533.56,440.11,534.07,435Z"/><path class="cls-2" d="M397.37,224.5c8.08-12.61,19.35-15.66,31.5-16.2,13.36-.59,25.93,3.26,37.9,9.39,1.35.69,2.12,2.72,3.15,4.13-1.74.4-3.7,1.56-5.2,1.07-17.19-5.66-34.54-8.91-52.38-4.3C407.52,219.84,403,222.26,397.37,224.5Z"/><path class="cls-2" d="M536,260.43c3.55,3.1-.23,8.67-4.29,6.32l-.2-.12c-3.78-2.18-8.41-2.57-12.55-4.11-2.05-.76-4.45-1.85-5.56-3.62-.67-1.07.27-4.61,1.46-5.47,1.93-1.39,5.11-2.73,7-1.94A53.24,53.24,0,0,1,536,260.43Z"/><path class="cls-2" d="M513.05,246.1l-1.89,2.11a1.31,1.31,0,0,1-1.66.22c-11-7-21.17-13.38-31.27-20-1.18-.77-1.84-2.47-2.74-3.74,1.42-.58,3-2,4.24-1.63,12.67,3.72,24.48,9.09,33.41,21.37A1.3,1.3,0,0,1,513.05,246.1Z"/><path class="cls-3" d="M230.52,264.8c-.51,3.52-1.18,7.06-1.5,10.6-.53,5.89.28,11.65.54,17.51.12,2.6.72,5.7-.67,7.92-1.83,2.93-5.08,5.41-7.45,7.91-1.88,2-4.34,4.11-5.68,6.53-.92,1.68-1.08,3.65-1.6,5.51-1.41,5-2.21,8.78-.83,13.78,1.51,5.48,3,11,4.62,16.41,1,3.17,2,9.35,4.68,11.65.82.69,1.7.61,2.66.89,3,.88,2.7,2.89,2.35,6-1,9-4.36,17.92-8,26.14-1.3,2.92-3.1,5.78-4,8.84-1,3.25-.68,6.67-.33,10,.92,8.78,1.36,16.74-2.06,25-2,4.93-2.57,1.15-6,1.89-3.09.67-3.2,5.27-3.43,7.68-.87,9-.9,18.28-1.17,27.34-.21,7-.12,12.67,3.59,18.6s7.13,14.29,14.36,16.14a24,24,0,0,0,7.72.22c2.46-.18,5-.46,7.4.5s3.48,2.83,5.26,4.34a12,12,0,0,0,7.4,2.81c2.47.19,4.72.2,7,1.37s4.06,3.36,6.2,4.83A36.28,36.28,0,0,0,279.91,531c.18,0,1.36-.37,1-.66L250,508.09l-16.12-11.64c-3.29-2.38-4.62-6.19-6.53-9.82a116.59,116.59,0,0,1-5.3-10.87c-.27-.68-1.19-2.35-1.06-3.06,0-.2.65-.38.82-.8,2.72-6.68,3.42-14,6-20.78,1.27-3.33,2.48-4.36,5.51-5.71,3.72-1.66,6.56-5.07,10.05-7.14,13-7.74,13.43,22.32,13.59,29.87.28,13.33,1.93,26.8,8.24,38.75a57.46,57.46,0,0,0,6.16,9.36c2.6,3.2,5.36,4,9.14,5.58,2.85,1.18,4.24,3.35,7.43,2.79a11.36,11.36,0,0,0,6.33-3.6c5.48-6.3-2.44-14-6-19.2-5.85-8.6-11.69-17.24-17.1-26.13a48.68,48.68,0,0,1-6-14.11c-2.13-8.13-4.84-16.13-7.46-24.12a80.11,80.11,0,0,1-2.67-8.05c-.47-2.21-.22-4.67-.3-6.93-.35-9.06-2.75-17.4-4.58-26.22-1.33-6.41-3.51-13.41-2.54-20,1.24-8.41,2.27-16.86,3.42-25.28.85-6.23,2.42-12.65,2.45-18.95.07-13.82-2.82-27.45-3.36-41.21-.24-6-.42-11.66,1.47-17.36s3.05-12.94,6.37-18c1-1.56,4.8-6.81,6.93-5.12,1.49,1.18.49,10.09.44,11.21a151,151,0,0,1-2,18.93c-.72,4.17-1.36,11.52-5,14.37-2.66,2.11-6.76,3-9.88,4.26-8.18,3.2-16.85,6.82-23,13.33-3,3.16-4.39,6.59-5.87,10.59A88.13,88.13,0,0,1,213.13,336c-5.51,9.6-11.5,18.92-16.57,28.77-4.54,8.82-9.28,18.85-9,29,.15,6.08,1.68,12.08,1.84,18.2.12,4.8-.39,9.63,0,14.43.88,11.84,6.94,24.34,12.59,34.61,6.69,12.16,14.93,23.52,23.19,34.64,5.75,7.74,11.13,16.57,19,22.4a95.64,95.64,0,0,0,35.42,16.4,81.59,81.59,0,0,0,13.81,2c1.44.07,2,.17,3.07-.6,1.79-1.29,3.71-5.48,4.9-7.23,1.66-2.44,3.15-5.29,5.18-7.43a68.69,68.69,0,0,1,15.63-11.65c2.59-1.46,5.62-3.14,8.62-3.5s6.05.82,8.94,1.39c5.74,1.14,11.41,2.3,17.27,2.31a73,73,0,0,0,14.52-1.24c1.5-.31,4-.59,5-2,1.12-1.69,1.18-5.52,1.68-7.5,1.09-4.29,2.26-8.57,3.43-12.84,1.6-5.8,3.61-11.66,4.41-17.62.89-6.59-2.17-14.12-3.59-20.46-2.25-10-5.52-20.55-6.27-30.84-1.11-15.07,0-30.58,0-45.68a120.79,120.79,0,0,1,.36-14.45c.86-7.16,2-14.08,1.91-21.29-.08-6.58-.74-13.3-.16-19.86.74-8.25,1.68-16.49,2.17-24.76.54-9.16-2.8-18-3.89-27-.83-6.87-1.08-13.86-1.62-20.77-.18-2.31,0-2.49-1.64-3.91-2.34-2-5.38-4.89-8.16-6.24-4.08-2-9.42-2.62-13.87-3.82-5.89-1.59-12.1-4.13-18.13-5a27.29,27.29,0,0,0-13.42,1.36c-3.46,1.26-6.51,3.36-10,4.62-2.6.95-5.25,1.16-7.92,1.74-4.7,1-7,4.22-8,8.68-1.69,7.4-2.08,15.18-2.45,22.73a278.06,278.06,0,0,0,0,29.08c.44,7.8.93,16.16,3.58,23.59a20.86,20.86,0,0,0,7.18,9.63c4,3,8.81,3.85,13.19,6,10.32,5,14.9,17.92,15.91,28.68,1.27,13.6-3.94,25.45-15.64,32.77a59.33,59.33,0,0,1-22.42,8.18c-2.67.41-9.84,2-12.31.13-1.3-1-1.73-4.6-2.18-6.09q-1.88-6.14-3.69-12.29c-1.83-6.22-5.31-13.7-4.37-20.29a50.13,50.13,0,0,1,6-18c3.29-5.62,7.56-7.76,14.31-8a48.88,48.88,0,0,0,6.79-.41c10.67-1.89,20.8-7.83,29.44-14.12,1.94-1.41,6.85-4.1,7.26-6.89.26-1.76-1.26-4.41-1.91-5.94a234.07,234.07,0,0,0-10.94-21.78c-3.75-6.82-7.6-13.66-12-20.11-2.41-3.56-5.21-5.37-8.13-8.38-5.36-5.52-11-12.43-13.53-19.8-1.48-4.35-.75-7.28,4.46-7.54a101.64,101.64,0,0,0,10.52-1.3c10.5-1.64,18,4.26,25.36,11.13,5.48,5.08,10.86,10.38,16,15.84,3.34,3.58,6.81,7.42,8.76,12,3.35,7.86-.43,15.11-2,22.85-1.62,8-1.64,16.29-2.18,24.41-1.66,25-4.61,52.31-21.79,71.91a82.13,82.13,0,0,1-19,15.81c-1.7,1-6.3,2.52-7.24,4.43l1.3-.43c-1-.63-.77-2.72-2.28-3.15-1.25-.35-2.07.59-2.67,1.52-2.26,3.48-2.07,9.23-2.73,13.24-.38,2.33-.82,4.66-1,7-.83,10.29.28,20.72-1.64,30.93-1.33,7.07-6.35,17.09,1.38,22.41,3.79,2.6,8.89,3.07,13,5,7,3.23,11.46,9.67,17.77,13.94,3.59,2.42,9.16,5.48,13.49,6.11,2,.29,4.81-.78,6.72-1.27,3.79-1,7.53-2.09,11.27-3.24,5.76-1.77,11.71-3.39,17.32-5.6-.75.3.44.06.78-.37a5.59,5.59,0,0,0,1-2.83,42.57,42.57,0,0,0-.16-10.18,149.06,149.06,0,0,0-3.45-21.6,95.07,95.07,0,0,0-4.83-14.95c-.83-1.94-2.74-4.34-3.17-6.37s3.15-7.21,4.36-9.63c4-8.1,8-16.26,11.66-24.54,2.88-6.5,6.23-13.33,7.3-20.42A186.15,186.15,0,0,0,388.46,354c-.07-4.59-.25-9.48-2-13.81-1.94-4.93-4.19-9.7-6-14.72-1.83-5.18-4.62-11-4.43-16.54.2-6,.48-12,.73-18q.91-22.15,1.85-44.29l.13-3.06a.21.21,0,0,0-.14-.23c-7.22-3.2-14.54-6.23-22-8.87-3.33-1.18-12.63-5.81-15.53-2-1.29,1.69-1.75,4.77-2.38,6.74q-2.62,8.15-5.41,16.24c-3,8.76-6.1,17.23-11.05,25.12a133.91,133.91,0,0,1-14.69,19c-4.61,5-9.51,9.79-14.49,14.46-2.38,2.23-4.77,3.62-4.47,7.13.55,6.38,4.29,12.94,6.79,18.71,3.93,9.07,7.9,18.16,10.87,27.61,2.76,8.78,5,18.32,3.74,27.56-1.2,8.85-6.3,15-13.17,20.37-11.87,9.22-26.33,14.24-40.46,18.83-4.6,1.49-9.28,2.87-13.73,4.78-2.25,1-5.51,2.22-6.75,4.52s0,5.21.33,7.55c.43,3.23.89,6.44,1.54,9.64,2.26,11.15,3.85,20.94,12.56,28.78,8.44,7.59,19,13,29.26,17.53a186.14,186.14,0,0,0,29.6,10.49c2.63.67,5.56,1.57,8.3,1.51,2.91-.06,5.66-1.7,8.45-2.46a99.06,99.06,0,0,1,20.94-3.45,18.55,18.55,0,0,0,8-2.45c9.06-4.69,17.44-10.93,25.62-17,1.94-1.44,2.58-1.68,3.23-3.92,1.83-6.31,3.88-12.83,5-19.3,1.8-10.47.34-21.74-.17-32.28-.33-6.75,6.94-15.3,2.91-21.4-5-7.49.54-18.2-2.45-26.44-2.56-7.05-1.18-15.7-.71-23.26s1.47-15,1.66-22.54c.28-11.22,0-22.52-.15-33.74a110.38,110.38,0,0,0-1.2-16.66,34.7,34.7,0,0,1-.36-10.81c.51-3.28,1.61-6.2,1.78-9.57.33-6.73-.61-13.46,0-20.17.45-5.27.26-10.44-1.59-15.47-2.9-7.92-9.17-13.26-15.84-18.08-4.06-2.93-8.81-5-12.77-8-1.78-1.35-2.17-2.53-2.3-4.7-.06-1.05.41-3-.64-3.74-2.53-1.71-8.27,5-9.46,6-4,3.38-9.38,7.59-14.07,9.33a81.09,81.09,0,0,1-8.55,2.12c-16.09,4-32.14,8-48.07,12.53-4.92,1.41-9.85,2.81-14.7,4.46a45.77,45.77,0,0,1-6.28,2c-1.89.35-3.89.29-5.67,1.11-4.42,2-5.34,7.51-6.69,11.68-2.76,8.55-5.86,17-9,25.43-9.89,26.88-21.65,53-30.54,80.28-8.19,25.11-17.31,52.46-16.25,79.19.51,12.74-.28,26.88,4.26,39a37.86,37.86,0,0,0,8.29,13.58c4.32,4.3,10,6.95,15.23,10,4.79,2.82,9.19,5.93,14.27,8.22s10.13,4.13,15.29,5.94c11.64,4.07,23.46,7.61,35.32,11,5.54,1.58,11.1,3.12,16.67,4.57.26.07,1.16-.09,1.17-.47.38-8.57.66-17.16.6-25.74,0-3.84-.68-7.7-.68-11.49,0-4.4,2.22-9.25,3.73-13.29,1.91-5.11,4-10.15,6.44-15a40.4,40.4,0,0,1,3-5.49c1-1.37.32-.52,1.66-1.25,4.43-2.42,8.07-6.06,11.61-9.63a134,134,0,0,0,16.74-20.42c5.6-8.49,12.24-17.8,14.14-28,1.72-9.2,2.92-18.49,4.86-27.66,4.11-19.36,4.89-39.14,5.87-58.9a153.65,153.65,0,0,0-.34-19.2c-.69-9.44-.79-18.95-5-27.55a175.6,175.6,0,0,0-16.42-27.07c-1.54-2.06-6.15-9.43-8.93-5.24-1.86,2.8-1.49,8.25-1.58,11.4a149.23,149.23,0,0,0,1,21c1.82,16.12,7.1,31.44,9.22,47.45,3.42,25.79,2.23,52.34.47,78.22-.33,4.83-.4,9.85-1.2,14.63-.86,5.18-1.93,10.12-2,15.43-.18,9.25,2,17.64,4.92,26.32,1.51,4.41,3,8.74,3.49,13.4.68,7,1.89,14.79.31,21.68-1.26,5.48-4.38,9.37-8.51,13-3.08,2.69-10.47,8.41-12.91,2-1-2.6.65-6.54,1.25-9.13q1.23-5.3,2.45-10.6c1.17-5.11,2.47-10.23,3.34-15.4.72-4.25,1.71-8.45,2.53-12.69.69-3.59-.82-4.27-3.73-6.53-6.73-5.25-14.7-11.34-23.61-9.61-11.76,2.28-24.1,8-32.73,16.34-6.06,5.88-11.34,10.07-20.13,11-6.58.69-14.46-.33-19.6-4.88-2.76-2.44-3.84-6-5.33-9.21q-2.73-6-5.74-11.8a36.33,36.33,0,0,1-3.15-7.83c-2.08-7.67-4.39-15-7-22.52-.41-1.16-1.53-3.06-1.52-4.31,0-2.19,2.45-5.72,3.3-7.67l7.67-17.76c8.4-19.45,16-39.71,25.63-58.58,2.32-4.53,6.37-14.48,12.75-12.88,6.89,1.72,11,10.48,10.91,16.9-.16,15.61-16.87,24.76-22.78,38-5.72,12.86.21,26.18,7.53,37.11,1.89,2.82,4.42,7.58,7.45,9.35,2.51,1.46,6.62.44,9.22-.07a116,116,0,0,0,15-4.24c2.35-.8,7.89-1.7,9.64-3.61.8-.87.7-2.24.79-3.39.26-3.24.28-6.51.34-9.77.34-19.49.17-39-.56-58.53-.21-5.59-1.11-11.12-1.71-16.68s-1.17-11-1.74-16.56c-.3-2.95-.23-6.25-.93-9.13-1.55-6.43-5-12.83-7.37-19-.16-.4-.92-.12-1.17,0-17.19,8.8-35.65,20.34-47.6,35.74-4,5.2-5.93,10.52-7.86,16.76-2.13,6.88-4.7,13.67-6.45,20.66a86,86,0,0,0-2.12,20.14,81.69,81.69,0,0,1-4.12,23.36,206.46,206.46,0,0,1-8,21.1c-1.1,2.53-2.23,5-3.38,7.54-.43.95-1.46,4.67-2.37,5.18s-1.25-2.18-1.53-3.48a47.17,47.17,0,0,1-.9-8.49c-.22-7.69.8-15.72,4.48-22.57,5.93-11.05,11.83-22.1,17.46-33.32,2.83-5.64,5.64-11.3,8.37-17,1.37-2.85,3.35-6,4-9.07.82-3.84,0-8.35-.43-12.18-.67-6.23-1.61-12.44-2.61-18.62q-2.09-12.92-4.61-25.78c-.09-.45-1.54-.1-1.45.39q2.17,11.05,4,22.17c1.74,10.43,4.42,21.78,3.81,32.42-.18,3.11-1.76,5.77-3.08,8.55-2.54,5.36-5.17,10.68-7.82,16q-9.18,18.4-19,36.44c-3.22,5.94-4.39,12.67-4.58,19.37-.12,4.17-.67,11.81,1.91,15.48,3.26,4.62,7.22-8.84,8-10.64,6.11-13.73,12.45-28.73,13.2-43.94.37-7.52.19-14.82,1.91-22.21s4.47-14.49,6.71-21.71c2.51-8.11,5.56-14.52,11.38-20.81a118.57,118.57,0,0,1,18-15.37,200.62,200.62,0,0,1,25.56-15.74h-1.17c2.44,6.29,6.1,13,7.43,19.55,2,9.77,2,20.24,3.17,30.15,1.87,16.37,1.71,32.87,1.79,49.35.05,9.82.25,19.71-.35,29.51-.16,2.57.21,3.49-1.84,4.38A123.06,123.06,0,0,1,284,403.08c-4.42,1.25-11.95,4.24-15.78.76-4.07-3.69-7.36-9.55-9.95-14.27-3.77-6.87-6.94-14.87-6.11-22.85.89-8.47,6.6-15.89,12.1-22,8.91-9.95,19.47-24.61,8-37-2.42-2.62-6.59-5.61-10.43-4.68-3.51.86-5.92,5.08-7.65,7.88-5.39,8.74-9.06,18.43-13.11,27.83q-7.21,16.72-14.44,33.42l-8.3,19.21c-1.68,3.88-5,7.94-3.5,12.09,2.8,8,5.37,15.77,7.58,23.91a45.85,45.85,0,0,0,3.88,9.67q2.73,5.35,5.23,10.81c1.46,3.2,2.5,6.59,5.1,9.06,7.81,7.42,21.87,6.79,31.1,2.78,6.28-2.72,9.8-7.95,15-12.07A68.71,68.71,0,0,1,306.31,436c6.09-1.74,10.33-1.8,16,1.26a77.56,77.56,0,0,1,9.2,5.92c1.45,1.07,4.41,2.7,5.23,4.38.72,1.48-.18,3.68-.51,5.26-.62,3-1.35,5.89-1.86,8.87-.72,4.23-1.61,8.41-2.55,12.59-1.55,6.86-3.75,13.8-4.76,20.76-.62,4.24,1.63,6.75,5.9,6.59,6.44-.24,13.18-7.3,16.16-12.54,3.67-6.47,3-13.66,2.54-20.78-.35-4.86-.53-9.6-1.94-14.29-2.6-8.69-6.1-16.87-6.81-26-.56-7.25.34-14.14,1.7-21.21,1-5.22,1.05-10.77,1.4-16.07,1.78-26.69,3.13-54.31-1-80.84-1.22-7.8-3.58-15.3-5.25-23a204,204,0,0,1-4.18-28.58c-.49-6.79-.83-13.83.18-20.59.13-.84.25-3.72,1-4.24s2.16,1.19,3.06,2.17c7.66,8.36,13.49,19.18,18.63,29.21,4.81,9.38,5.09,19.21,5.85,29.63,1.42,19.49-.54,39.37-2.4,58.78-.93,9.71-3.36,19-5.08,28.54-1.4,7.82-1.56,17.47-4.95,24.8a146.64,146.64,0,0,1-28.72,41,61.76,61.76,0,0,1-8.8,7.92c-1.06.72-2.37.9-3.34,1.61-2.29,1.66-3.7,5.92-4.85,8.34a168,168,0,0,0-6.9,16.7c-1.3,3.71-2.9,7.77-2.62,11.75a296.73,296.73,0,0,1,.15,32.12,15.63,15.63,0,0,0-.14,3.6c-.27-1.19,2.14.48-.26-.68-3.23-1.56-7.59-2-11-3-12.12-3.39-24.2-7-36.11-11a157,157,0,0,1-31.42-14.47c-6.31-3.8-13.41-6.87-18.19-12.69A41.08,41.08,0,0,1,192,472c-1.5-5.89-1.87-12-2.19-18.09-.45-8.33-1.17-16.82-.76-25.15.7-14.23,4.22-28.4,7.88-42.1,7.2-27,17.25-52.58,27.51-78.48,7.18-18.13,14.21-36.41,20.24-55,1.1-3.37,1.75-7.8,4.41-10.3,2.42-2.27,6.3-1.8,9.33-2.76,4.43-1.4,8.79-3,13.26-4.34,17.23-5.09,34.61-9.41,52-13.74,7.26-1.8,12.27-3.15,18.56-7.45,3.69-2.52,6.79-5.8,10.41-8.36.35-.25,2.65-2.08,3.24-1.68.27.18.06,1,.16,1.22.31.81-.07,2.09.05,3,.55,3.87,4.56,5.15,7.6,6.91,7.21,4.18,15.12,9.38,19.91,16.33a31.41,31.41,0,0,1,5.05,20.65c-.55,6.68.13,13.31-.06,20-.19,7.07-2.63,13.23-1.66,20.43,1.66,12.35,1.39,24.75,1.47,37.19,0,8.36,0,16.45-.68,24.76-.82,10.34-2.15,21.06-1.41,31.43.19,2.61,1.49,4.27,1.78,6.73.66,5.57-.19,11.31,0,16.9.07,1.81,0,4.12.82,5.79.69,1.38,1.87,1.9,2.16,3.52,1,5.31-3.12,11-4,16-.56,3.26.19,7,.34,10.26a189.76,189.76,0,0,1,.24,20.59c-.41,6.72-2.64,13.25-4.38,19.72-1.1,4.07-.89,5.12-4,7.42-8.73,6.47-18.25,14.56-28.57,18.29-2,.73-3.93.52-6.06.67a84.18,84.18,0,0,0-10.37,1.5c-3,.59-6.08,1.27-9.07,2.1-2,.56-4.27,1.8-6.31,2.17-2.71.49-6.25-.79-8.84-1.45a165.93,165.93,0,0,1-15.95-5c-12.07-4.39-24.08-9.7-34.76-16.89a54.71,54.71,0,0,1-12.19-10.58c-4.16-5.14-5.1-11.2-6.55-17.52-1-4.52-2-9.05-2.63-13.65-.35-2.62-2-7.21-.75-9.58,1.73-3.44,8.13-4.9,11.41-6,5.74-2,11.57-3.73,17.31-5.75,13.45-4.72,27.09-10.72,37.41-20.84,12.63-12.39,8.57-31.28,3.56-46.3-3.19-9.56-7.33-18.75-11.31-28-1.48-3.46-3-6.92-4.19-10.49-.71-2.12-2.17-5.66-1.16-7.91.76-1.7,3.29-3.35,4.61-4.59,2.3-2.16,4.59-4.34,6.83-6.56a175.88,175.88,0,0,0,15.47-17.29c10.49-13.6,15.83-28.85,21.13-45,1.14-3.47,2.14-7,3.42-10.44.55-1.47.62-2.16,2.26-2.36,2-.25,4.89,1,6.69,1.59,5.48,1.69,10.84,3.81,16.14,6q3,1.24,6.07,2.53c1,.43,3.32.92,4.08,1.76s0-.46.31.66c.28.88-.1,2.42-.14,3.33l-.52,12.43q-.7,16.81-1.4,33.63c-.24,5.76-1.35,12.22-.61,18,1.6,12.38,10.38,23.1,11.89,35.37,1,7.91.39,16-.3,23.94-.48,5.5-.69,11.36-2.1,16.72-2.79,10.65-8.18,20.89-12.92,30.77q-4.9,10.21-10.1,20.28a.17.17,0,0,0,0,.18c3,4.45,4.84,9.88,6.41,15a119.45,119.45,0,0,1,5.66,34.88c0,1.75.15,4.22-.82,5.8-.31.51.83-.54.12,0a5,5,0,0,1-1.33.45c-6.44,2.11-12.86,4.24-19.35,6.18-4.76,1.42-10.86,4.23-15.53,2.55a64.56,64.56,0,0,1-7.2-2.77c-6-3-10-7.93-15.12-12.14-4.13-3.41-8.93-5.18-14-6.78-5.37-1.7-8.76-3.75-9.55-9.72-.6-4.53,1.13-8.1,2.16-12.36a76.22,76.22,0,0,0,1.68-15.94c.21-7.5-.07-15,1.15-22.43.67-4.11.45-10.84,2.69-14.29,1.74-2.68,1.23.82,2.69,1.71a1.14,1.14,0,0,0,1.3-.43c.37-.75,2.7-1.54,3.43-1.95,2.4-1.36,4.76-2.79,7-4.35a80.69,80.69,0,0,0,18.91-17.75c15.2-20,17.39-47.12,18.83-71.4.47-8,.6-16.13,2.61-23.92,1.95-7.58,4.51-14.29.64-21.76-5.3-10.23-15.8-18.77-24.08-26.47-6-5.56-13.17-11.94-21.86-11.81a71,71,0,0,0-9.14,1.23c-3.12.45-7-.13-9.92,1.08-5.37,2.2-2.14,9-.2,12.54a64.86,64.86,0,0,0,13.42,17.34,41.16,41.16,0,0,1,8.13,9.37c4.86,7.62,9.27,15.55,13.48,23.54,3.23,6.13,7.19,12.66,9,19.4,1.09,4-3.65,6.16-6.55,8.28a91.12,91.12,0,0,1-18.82,10.73A40.85,40.85,0,0,1,295.31,336c-2.93.26-5.84-.47-8.75,0-4.3.68-7.68,3.51-10.16,7-4.46,6.24-8.77,17-7.27,24.84,1.55,8.16,4.45,16.23,6.85,24.16,1.09,3.62,1.17,10,5.51,10.62,8.69,1.33,18.78-1.4,26.69-4.74,10.28-4.34,19.5-11.14,23-22.15,3.07-9.73,1.76-20.8-2.2-30.08-2-4.57-4.67-9.07-8.67-12.13s-9.2-4-13.71-6.29c-8.83-4.57-11.26-12.82-12.58-21.89-2.71-18.73-2.36-38.63,0-57.38.82-6.61,1.16-13.88,9-15.34a48,48,0,0,0,13.25-4.53c7.27-3.65,14.14-3.9,21.67-1.38,5.35,1.79,10.94,3.07,16.4,4.54,2.8.76,5.91,1.23,8.6,2.32,2.37,1,4.55,3.08,6.67,4.7,2.49,1.91,3.58,2.15,3.82,5.17l1,12.3c.71,9.11,2.4,17.83,4,26.85,2.33,13.41-2,27.19-1.65,40.73.17,7.7.74,15.5-.26,23.16-.74,5.69-1.76,11.37-1.76,17.11v48.54c0,17.24,6.21,34.56,9.67,51.36,1.21,5.88-1.14,12-2.73,17.67-2.08,7.42-4.27,14.86-5.94,22.39-.14.63-.16,2.35-.53,2.85-1.33,1.82-6.08,1.85-8.06,2.07a64.73,64.73,0,0,1-17.52-.11c-5.56-.91-11.86-3.44-17.5-3.15-3.44.18-6.83,1.84-9.8,3.44a89,89,0,0,0-15.51,11.21c-4.19,3.58-6.85,9-9.92,13.5-.56.82-2.21,2.82-1.16,2.41-1.17.46-3.52-.19-4.69-.31a87.23,87.23,0,0,1-19.86-4.41c-11.2-3.9-23.91-10.23-31.9-19.31-7.68-8.73-14.39-18.68-21-28.2-8.6-12.28-16.67-24.8-22.07-38.85-2.19-5.69-4.53-11.56-5.15-17.67-.47-4.69,0-9.42,0-14.12-.08-6.42-1.56-12.65-1.85-19-.24-5.23,1.12-10.48,2.84-15.37,4-11.46,10.44-22,16.63-32.37,4.76-8,10-16,13.11-24.76,3.89-11,14.39-16.4,24.62-20.57,4.93-2,12.9-3.32,15.45-8.57,2.37-4.89,3.06-10.94,3.8-16.26a139.3,139.3,0,0,0,1.45-19.19c0-2,.76-7.57-2-8.11s-5.9,3.74-7.22,5.4c-3.7,4.6-4.75,11.1-6.57,16.6-.78,2.36-2.06,4.94-2.45,7.41-.45,2.82,0,6.08,0,8.93,0,14,2.76,27.91,3.28,41.9.25,6.64-1.1,13-2,19.61-1.23,8.91-2.36,17.84-3.61,26.75-2.08,14.74,5.8,29.37,6.76,44,.21,3.23-.22,6.8.32,10a44.12,44.12,0,0,0,2,6.13c2.71,8.2,5.44,16.42,7.77,24.74,1.46,5.23,2.45,9.13,5.29,13.92,5,8.42,10.47,16.56,15.94,24.66,4.12,6.11,16.92,19.36,5.36,24.51-3,1.34-4.16-.24-6.59-1.45-2.64-1.32-5.92-1.68-8.27-3.57s-4.27-5-5.88-7.53c-7.39-11.5-10-25.17-10.57-38.66-.22-5.57-.13-11.13-.84-16.67-.68-5.33-1.26-13.31-5.05-17.5-4.75-5.25-11.92,1.14-15.86,4.19a23.55,23.55,0,0,1-5.79,3.31,6.16,6.16,0,0,0-1.81,1c-2.16,1.82-3,5.48-3.81,8-1.27,4.13-2.15,8.36-3.23,12.54a19.45,19.45,0,0,1-1.25,4.19c-.2.37-.91,1-1,1.24-.52,1.69.64,3.61,1.33,5.19,1.67,3.79,3.63,7.47,5.58,11.12,1.81,3.38,2.89,6.28,5.95,8.48l16.72,12.08,30.08,21.73,1-.66a35.18,35.18,0,0,1-21.12-8.52c-5.38-4.53-12.53-2-17.64-6.63-4.34-3.92-6.76-5-12.68-4.55-4.32.3-8.36.46-11.9-2.48-3.26-2.7-5.26-6.91-7.51-10.44a55.24,55.24,0,0,1-4.14-7C203.85,487,204,483,204,479c.14-9,.62-18,1-26.95.1-2.23-.22-7.31,1.5-9.16,1.37-1.47,2-.12,3.59.19a3,3,0,0,0,3.46-1.45c3.67-5.31,4.24-13.44,3.9-19.61-.22-4-1-7.95-1.12-11.94s1.08-7.05,2.79-10.59A115.06,115.06,0,0,0,228,375.29c.6-2.63,3.21-10.19-.06-12.18-1-.6-2.36-.11-3.36-.67-1.66-.93-2.32-3.56-2.95-5.23-2-5.24-3.43-10.68-4.92-16.07-1.16-4.21-3.34-9.15-2.78-13.56.75-5.9,2.35-11.67,6.31-16.07,2.63-2.92,5.43-5.68,8.1-8.56,1.61-1.73,2.66-2.62,2.84-4.86.57-7.07-1.12-14.21-.76-21.32.2-4.08,1-8.13,1.57-12.18C232,264.08,230.59,264.34,230.52,264.8Z"/><path class="cls-4" d="M301.82,535.86h-18c-5.26,0-9.17.53-13.52-1.55-9.41-4.5-20.58-8.81-28.29-16.06-10.13-9.52-18.61-20.77-29-30-3.72-3.31-8.2-5.75-12.06-9.07-1.87-1.61-6.23-4.18-7.29-6.45-1.64-3.52,1.76-10.57,2.83-13.92,1.87-5.83,1.75-12.37,1.65-18.42-.05-3,.13-6.24-.7-9.15-1.31-4.64-3.82-8.95-4.55-13.73-2.06-13.61-4-27.38-5.4-41.07-.49-4.68,3.26-9.94,5.21-14.1,2.63-5.61,5.26-10.46,7.2-16.41,3-9.2,5.86-18.43,9.16-27.52a71.16,71.16,0,0,0,2.74-10.2c.44-2.15.61-4.81,1.73-6.74,2.06-3.55,5.14-6.75,7.28-10.39,2.33-4,4.81-7.81,7.12-11.77a85.51,85.51,0,0,1,4.57-7.35c1.56-2.14,3.47-3.05,5.57-4.52,5.42-3.79,9.27-9.46,14.8-13.23,3.23-2.2,7.27-2.85,10.66-4.88,3.8-2.28,7.36-4.95,11.16-7.24,3.45-2.08,6.49-1.79,10.15-3,8.73-2.77,16.48-8.17,25.17-11.06,3.77-1.25,8.2-1,12.17-1.42.12,0,1.32-.4,1-.57s-1.33-.62-1.32-.82c0,0,5.7,1.43,7.19,1.84,3.47.94,6.93,1.92,10.46,2.63,6.21,1.25,9.33-3.31,11.56-8.76l-1.31.42,10.7,4.6,6.65,2.86c1.94.84,1.74.49,2.14,2.19s-.55,4.11,0,5.9c.3.94,1.54,2.1,2.1,2.86l9.34,12.71c1.8,2.44,3.82,4.83,5.43,7.39.82,1.31.91-1.27.18-.2-.15.22-.67.22-.85.46a3.86,3.86,0,0,0-.77,4.08c1,4,4.14,7.34,5.54,11.24a21.68,21.68,0,0,1,1.12,4.4c.16,1.21-.26,2.92.06,4,.51,1.77,1.37,1.23,2.7,2.15.15.1.69.31.59.06,0,0-3.56.16-3.11.17a6.38,6.38,0,0,1-5.77-2.85c-3.31-4.3-4-10.2-4.27-15.45-.39-8.17-1.68-16.36-2.72-24.47,0-.14-.33-.13-.42-.12-3.59.21-7.2.53-10.8.63-2.88.08-5.5-.75-8.41-1.44-.18,0-1.51.15-1.32.49,2,3.4,5.75,4.57,9.16,5.88,5.37,2.07,8.7,7.57,11.05,12.57,1.72,3.66,2.9,6.09.06,9.29a39.69,39.69,0,0,1-12.88,9.59c-7.21,3.22-14.26-2.52-21.31-4.32a83,83,0,0,0-9.73-1.63c-3.34-.43-6.62.79-9.59,2.19-2.14,1-4.22,2.39-6.54,3-1,.25-2.17.09-3.14.33-.43.11-1,0-1.36.32-1.45,1.18-1.32,4.11-.41,5.54,2,3.19,7.58,4.38,10.93,5,4.36.84,12.27,2.22,15.45-2,.54-.71.65-1.57,1.34-2.22,2.83-2.7,8.89-2.33,12.52-2.46,7.82-.28,16,.16,23.5,2.41a21.85,21.85,0,0,1,6.26,2.69c2,1.38,5.16,3.61,6.38,5.57s-.56,5.84-.9,8.26a41.57,41.57,0,0,0-.33,9.17c.45,5.61,2.54,10.82,2.14,16.53-.14,2.05-1.08,3.78-1.32,5.77-.34,2.89,1.21,5.45,2.16,8.07s1.65,6.08-2.4,4.07c-3.49-1.73-6.61-4.29-10-6.29a33.46,33.46,0,0,0-8.39-3.92c-2.79-.74-5.24-.15-8.08-.4-5.52-.5-10.47-2.41-16.11-1.53-3,.47-5.77,1.71-8.75,2.16a69.64,69.64,0,0,1-9.18.39c-5.85.1-12.69,1.63-7.17,8.79,4.8,6.23,15.77,7.11,23,6,2.71-.42,4.48-1.94,6.62-3.56,7.12-5.4,16-3.78,24.06-1.84,5.09,1.22,11.09,2.5,15.66,5.18,3.62,2.12,3.88,7.09,4.34,10.92.39,3.26-.15,6.17-.15,9.44,0,4.52,3.93,12.1.25,15.78-4.57,4.57-10.15,0-14.36-2.26q-5.65-3-11.31-6.05c-4.48-2.39-10.45-1.13-15.41-1.13-4.6,0-10.44-.41-12.41,5.3-2.2,6.36,22.71,7.17,26.17,6.76a23.14,23.14,0,0,0,4-1c3-.92,3.36.32,5.34,2.59a10.65,10.65,0,0,0,5.26,3.41c2.43.81,3.11,1.77,4.73,3.68,1.27,1.49,2.86,2.55,3.78,4.33,1.51,2.93,1.27,6.64,1.21,9.84a78.51,78.51,0,0,0,0,9.32c.37,3.67,2,7,2.5,10.62.74,5.76-.17,17.77-6.6,20.36-4.78,1.93-10.89,1.34-15.91.95-4-.32-7.95-.84-11.88-1.53-3-.52-3-1.2-4.25-4.22-2.93-7-2.88-13.13.18-20.06,1.66-3.76,3.28-7.41,4.76-11.22,1-2.45,7.45-13.41.26-10.53-4.44,1.78-8.53,5.74-11.79,9.13a50.56,50.56,0,0,0-4.89,5.84c-1.25,1.77-1.9,4.82-3.18,6.34-2.55,3-11.44-.21-14.64-1.09-3-.81-6.88-1.48-9.55-3.11-3.62-2.22-6.11-7.61-8.26-11.18a54.56,54.56,0,0,1-3.12-6.25q-5.12-11.62-10.16-23.27c-.95-2.17-2.1-4.35-2.87-6.59-.92-2.65-1.31-5.43-2.68-7.94-2-3.68-4.08-2.38-7.18-4.37a27.47,27.47,0,0,1-7.31-7.57c-2.91-4.29-1.93-9.1-2-14,0-2.53-.35-5.7.77-8,.86-1.8,2.81-2.86,4.46-3.86,10.1-6.08,23-5.06,34.08-8.32,6.45-1.89,12.76-4.16,19.28-5.79,5.14-1.28,9.85-1.89,14.72-4.12.87-.4,13.26-4.8,12.51-7.9-.64-2.63-8.68-1.36-10.18-1.29-6.62.28-13.25.44-19.85,1.18-12.39,1.39-24.23,5.19-36.48,7.14-1.53.24-6.43.18-9.18.41-2.17.18-4.27.57-6.42.87-3.65.51-4.81,0-6.17-3.39-2.59-6.38-2.53-14.29-2.22-21a84.92,84.92,0,0,0-1.28-17.57c0-.29-.88,0-1,0-1.27.42-.22.52.25.77,1.41.73,5.12-.17,6.59-.28,5.31-.38,10.6-.93,15.91-1.17,7.22-.32,14.32-.65,21.52-1.25,4.29-.36,8.55.36,12.79.9,1.78.22,4.29.88,6.08.23,4.6-1.66-2.77-7-4.47-8.29a38.49,38.49,0,0,0-18.64-7.38c-3.42-.32-6.05,2.22-9.14,3.61-9.44,4.24-20,4.21-30.08,6q-4.82.86-9.61,1.86c-.58.12-3.12,1-3.58.68-2-1.43,4.72-5.89,5.66-6.62,3.79-2.91,7.79-6,12.08-8.19,2.11-1.06,4.37-1.84.46-.68s-7.87.35-11.66,1.76c-4.45,1.65-8.93,7.52-11,11.59-.24.47-1.52,1.9-.15.92A9.89,9.89,0,0,1,248,266a49.28,49.28,0,0,0-7.78,3.16,26.15,26.15,0,0,0-4.9,4.14c-1,1-3.81,2.73-4.13,4.23-.77,3.64,8.26,3.1,10.21,3.18,2.17.08,4.4.45,6.55.46,4.29,0,7.91-2.74,11.32,1.51,6.4,8-4.73,18.68-11.06,23.15-4.27,3-9.6,4.35-14.49,6.2-4.36,1.65-9.36,4.13-12.4,7.71a29.06,29.06,0,0,0-5,10.14c-.43,1.75-.6,4.57.27,6.21.15.28.79.07,1,0,4.26-1.49,8.19-2,11.72-5.17,3.32-3,5.66-7.3,8.06-11,1-1.59,4.32-8.62,6.47-8.39.24,0,1.25-.13,1.19-.51-.11-.76-2.29-1.46-2.07-2.33.14-.53,14.39,4,15.72,4.4,1.65.47,8.46,1.45,8.65,3.85.1,1.3-1.7,2.64-2.37,3.56a19,19,0,0,0-3,6.88c-1.15,4.85-1.39,10.16-2.08,15.09a105.83,105.83,0,0,0-1.34,14.77l1.19-.51a16.47,16.47,0,0,0-16.38,7.54c-4.9,7.71-8.66,16-9,25.12,0,.39,1.26-.12,1.38-.23l16.13-14.81c1.56-1.43,2.83-2.92,4.26-4.5a31.4,31.4,0,0,1,5.84-5.62,8.22,8.22,0,0,1,12.52,4.48c1.34,4.51-3.94,7.17-1.3,12,1.52,2.77,4.26,4.64,5.83,7.38,3.54,6.16,5,13.44,9.68,18.73,3.82,4.35,7.43,9.07,11.52,13.17.2.2.9,1.14,1,0,0,0-1.75.69-2,1.15v.07c1.42,2.11,5.09,3.82,7.05,5.58,2.33,2.09,4.63,5.4,7.29,7s7.18.87,10.47,1.2c6.57.67,12.05,3.49,17.88,6.37,2.46,1.21,5.54,3,8.34,3.2.78.06,1.65.21,2.26-.44.94-1-1.45-1.08-1.23-.55a28.79,28.79,0,0,0,3.89,3.64c-.05,0-.38.2-.3.31,1.62,2.42,5.2,3.37,7.84,4,4.69,1.11,7.81,5.5,12.53,7,1.91.61,10.85,3,10.61-.54l-1.41.45c4.17,3.44,8.8,11,9.37,16.63.68,6.65-7.4,9.51-10.8,13.86-1.11,1.41-1.09,3-2.49,4.24-2.23,1.91-6.21,2.23-9,2.64a20.31,20.31,0,0,0-6.21,1.43c-3.57,1.61-9.26,6.24-12.84,5-3.15-1.12-5.2-1.77-8.74-1.46-6.17.55-12.34,1.28-17.76-2.3-2.42-1.6-4.69-3.52-7-5.25-2.69-2-5.31-2.68-8.54-3.74-3.5-1.14-6.28-3.2-9.37-5.2-.27-.17-1.65.17-1.36.51,3.11,3.74,6,7.65,9.07,11.41,3.4,4.16,7.43,2.67,12.21,4.11,3.23,1,6,3.09,9.08,4.44a48.94,48.94,0,0,0,9.61,3,32.37,32.37,0,0,0,5.51.72c3.53.12,7.09,0,10.63,0,2.52,0,6.13.71,8.57,0,2-.58,3.24-2.69,4.91-3.92,4.53-3.35,10.65-5,15.79-7.34l-1.15.07,4.9,8.63c1.8,3.17,2,2.49-1,4.64L378,517.78a23.86,23.86,0,0,1-2.86,2.1c-.15.08,1.3-.15,0-.18-.74,0-1.48-.05-2.22-.05-6.78,0-12.45,3.21-19.11,3.66a75.39,75.39,0,0,1-21.21-1.73c-5.94-1.29-11.79-3.17-17.64-4.79-6.39-1.77-13.25-3.29-18.94-6.82a36.11,36.11,0,0,0-6-2.89c-3.05-1.22-7.36-2.13-10.05-4-2.36-1.66-4.26-5.1-6.09-7.34-.41-.5-2.24-2.21-2.32-2.73-.16-1.07,7.25-1.93,7.81-1.84,2.11.31,4.47,2.32,6.34,3.35,1.49.82,4.25,2.51,6,1,3.17-2.74-2.17-7.19-4.14-8.61-3.25-2.33-3.45-2-7.1-1.87s-7.81-2.65-11.78-3.28c-3.16-.51-7.42,0-9.72-2a23.91,23.91,0,0,1-4.6-5c-1.06-1.84-.92-1.48.48-3.54a.1.1,0,0,0,0-.13L250,464.92c-1.81-2.31-2.45-5-3.37-7.74-1.3-3.91-2.25-8.29-4-12-1-2-2.64-3.64-3.41-5.79-.68-1.88-.77-2.06.84-2.82,1.45-.68,3.75-.66,5.33-.92l4.84-.81c.25,0,1.52-.45,1.79-.29.64.36-.27-.62-.33,0s-1.53,2-.93,2.59c.2.18.74,0,.94-.06a6.32,6.32,0,0,0,2.17-2,100.25,100.25,0,0,0,7-9.22c1.75-2.52,5.47-6.59,5.83-9.75s-3.35-5.78-6.19-5.69c-4.41.13-7.33,6.15-10,8.89a31.56,31.56,0,0,1-8.25,6l-6.07,3.36a9.35,9.35,0,0,1-1.78,1c-.7.19-.08,0,.09.1,1.06.43-.14-.81-.18-.92-1.23-3.51-5.46-5.48-8.6-6.69-2.15-.83-4.71-1.46-6.7-2.62-1.56-.91-1.65-1.64-2.46-3.45-1.6-3.6-1.69-5.07-1.48-9,.17-3.16.91-6.82.51-10-.46-3.63-2.23-7.28-3.14-10.84-.65-2.54-2.17-6.21-1.13-8.44.88-1.87,3.38-3.79,4.71-5.38,1.63-2,3.05-4,4.57-6a66.24,66.24,0,0,1,7.53-9c2.55-2.38,4.28-3.23,5-6.58.24-1.12,2-6.7.26-7.16-1.24-.33-2,1.59-2.58,2.25-4.71,5.5-12.18,8.73-17.78,13.25-1.68,1.36-3.21,2.85-4.79,4.31-1.23,1.14-.24.68-2,1.22-1.07.33-2.14.64-3.22.91a6.63,6.63,0,0,1-2.27.51c-1.88-.27-.89-.22-1-1.23-.29-2.29.09-4.35-.82-6.7-.16-.4-1.3.05-1.44.31-1.44,2.74-4.36,7.47-2.88,10.57,1.57,3.28,5.88,5.18,7.67,8.5,2.66,4.92,2.48,10.08,2.71,15.52.12,2.89-.39,6.3.29,9.06,1.49,6,7.72,10.77,7.2,17.17-.43,5.35.28,8.51,4.16,12.25,3.4,3.28,12.72,3.86,12.2,9.66,0,.23.74.07.79.06,1.66-.52.61,9.05.62,10.22,0,2.94-.6,8.16.78,10.82.71,1.36,3.9,2.4,2.46,3.7s-8.7-1.06-10.54-1.62c-5.05-1.53-8.77-6.44-12.4-10q-4.77-4.73-9.47-9.52c-1.7-1.72-4.88-3.91-6-6.09s-.91-5.9-1.22-8.35c-.58-4.53-1.16-9.07-1.8-13.6-.84-5.9-3.13-11.51-4.8-17.24-.1-.35-1.39,0-1.44.31-.9,5.6-1.75,11.2-2.51,16.82-.8,5.93-.36,11.71-1,17.58,0,.16.12.18.25.2,3.54.4,7.08.86,10.63,1.21,2.55.25,2.66,1.67,4.11,4.12,2.73,4.6,5.43,9.21,8,13.9,1.9,3.45,3.31,7.61,5.77,10.69a26.53,26.53,0,0,0,10.9,8c3.41,1.14,7.31.95,10.82,1.95,7.63,2.17,14.56,6.62,21.35,10.58a1.34,1.34,0,0,0,1.1-.13c2.24-1.29,4.81,3.67,4.2,5.44-1.45,4.21-6.92,7.58-10.8,8.69-2.91.83-6.09,1.24-9.05,1.9-4.28,1-8.65,2.33-13,2.91-.55.07.26,0-.84,0s-2.21-.06-3.31-.09l-6.25-.16c-.29,0-1.18.1-1.19.51,0,2.51,7.39,5.29,9.15,6.43a17.61,17.61,0,0,1,5,5c.59.8.34,1.23,1.17,1.54s3.28-.66,4.2-.75a73.65,73.65,0,0,0,9.7-1.25c4.35-1,8.25-2.65,12.84-2.15,4.42.48,6.59,2.14,9.15,5.46,1.84,2.39,4.84,1.78,8,2.45,4.06.87,7.34.28,10.25,3.43,3.65,3.94,6.28,11.3,12.81,9.62,2.6-.67,4.15-3.38,6.9-4.15,3.09-.87,6.83-2.12,10-1.5,2.74.53,5.55,2.17,8.25,3,.33.11,1.15-.06,1.31-.42,2.94-6.57,6-9.71,14.51-9.46,4.51.13,9,1,13.52.4,2.88-.39,7.52-.38,10.1-1.85,1.15-.66,2.18-2.31,3.07-3.24a40.71,40.71,0,0,1,6-4.93c1.88-1.34,4.9-2.89,5.62-5.39s.24-6.43.38-9c.35-6.3.38-12.61.5-18.92l-1.41.45,2,1.24a1.31,1.31,0,0,0,1.4-.37l3.15-6.68c1-2.21,3.12-5.07,3.54-7.49.21-1.22-.34-2.92-.51-4.13l-1.48-10.59c-.26-1.86-1-4.18-.84-6.05s1.25-4.11,1.81-6l4.9-16c.1-.33-1.31-.15-1.43.24-2.59,8.47-7.36,17.61-6.12,26.49l1.42,10.19c.24,1.75,1.09,4.32.82,6.09-.34,2.26-2.36,5-3.33,7L378,479.8l1.4-.37-2-1.24c-.29-.18-1.4,0-1.41.45-.12,6.47-.16,12.94-.53,19.4-.17,3,.32,7.27-1.3,9.79-1.95,3-5.91,4.52-8.6,6.86-1.59,1.38-2.88,3.72-4.63,4.82.89-.56-.25,0-.74.1-1,.28-2.11.39-3.14.58-6.14,1.1-11.66.9-17.88.41-4.87-.39-8.24.16-12.21,3.28-2.59,2-3.32,4-4.66,7.05l1.31-.42c-4-1.28-7.55-3.54-11.83-3.11-3.22.33-7.46,1-10.37,2.45a14.4,14.4,0,0,0-2.45,1.86c-1.76,1.44-1.94,2.19-4.73,1.23s-5-5.25-6.9-7.49c-1.53-1.86-2.88-3.73-5.17-4.37-3-.83-6.35-.86-9.42-1.66-.88-.23-3.4-.12-4.12-.46-1.18-.54-2-3.17-3.24-4.21a13.13,13.13,0,0,0-6.13-2.44c-6.6-1.15-12,1.7-18.41,2.7-2.61.41-5.26.25-7.85.66a7.28,7.28,0,0,1-1.65.38c-.44-.16-1.22-2.24-2.27-3.43-1.83-2.06-4.61-3.42-7-4.77-1.29-.74-5.71-2.48-5.68-4.3l-1.19.51c4.52.12,9,.67,13.44-.32,5.41-1.21,12-2.8,16.75-3.67a25.12,25.12,0,0,0,9-3.13c2.11-1.33,6.51-5.16,6.77-7.72.21-2-2.36-5.22-4.41-5.38-.7-.05-1.25.35-1.9.38-1.19.05.8.22.32,0a18.41,18.41,0,0,1-1.73-1c-6.1-3.57-12.27-7.3-19.08-9.39-3.53-1.08-7.43-.86-10.89-1.9-3-.9-6.34-3.52-8.66-5.56-3.49-3.07-5-7.24-7.13-11.23-2.27-4.22-4.68-8.37-7.1-12.51-1-1.79-2.51-5.94-4.25-7.15-1.22-.85-3.74-.63-5.22-.8a46.38,46.38,0,0,1-6.06-.69c-1.87-.48-1,.38-1.26-1.31a49.81,49.81,0,0,1,.26-11.2c.83-7.32,2-14.6,3.15-21.87l-1.44.31c1.43,4.9,3.43,9.81,4.44,14.79,1.46,7.14,2,14.59,2.89,21.83.32,2.54.6,2.72,2.5,4.65,5,5.14,10.09,10.27,15.22,15.32,2.74,2.7,5.55,6.37,9.17,7.91a31.66,31.66,0,0,0,11.94,2.23c.9,0,4,0,4-1.41,0-.86-2.51-2-3-2.67-1.78-2.3-1.15-6.88-1.24-9.69-.13-4,1.9-9.5-1.13-12.24-.11-.1-.49.09-.58,0-.6-.58.42.36.26.07-.58-1-.28-2.25-1.17-3.37-1.75-2.21-4.82-2.52-7.2-3.64a17.28,17.28,0,0,1-6-4.91c-3.34-4.05-1-7.69-1.75-12.22-.9-5.2-6.08-9.65-7.46-14.77-.7-2.61-.15-6-.27-8.75-.21-5,0-9.86-2-14.45-1.59-3.55-4.23-5.68-6.91-8.5-2.16-2.28-1.94-3.88-.86-6.8a41.9,41.9,0,0,1,2.29-5.06l-1.44.31a13.56,13.56,0,0,1,1.06,4.53c0-.58-.77,3.52-.81,3.48.88.87,3.24,0,4.16-.16,3.64-.78,5.93-1.3,8.4-3.77,6.31-6.31,15.11-9.73,21.21-16.14.39-.41.72-.85,1.08-1.27.77-.89,0-.78,0-.61.48,1.85-.44,6.78-1.39,8.61s-3.57,3.34-5.12,4.91a66.17,66.17,0,0,0-4.74,5.69c-2.27,2.86-4.29,5.9-6.63,8.7-1.13,1.35-5.12,4.53-5.46,6.26s1.09,5.18,1.56,7.06c.59,2.38,1.33,4.73,2,7.08,1.49,5.13,1.11,9.13.82,14.53-.12,2.2-.41,4.12.21,6.17.56,1.85,1.63,5,3.19,6.18,2.69,2,6.82,2.36,9.83,3.82s4.85,4.12,6.83,6.65c.18.23.94,0,1.1-.13,4-2.23,8.18-4.33,12.13-6.71,4.19-2.53,10.35-13.47,15.31-11.56,5.71,2.2,1.53,7.76-.44,10.81-2.92,4.51-6.65,8.49-9.56,13-1,1.55.61-.74,1.06-1.54.14-.25-.54-.18-.59-.18q-4.31.7-8.61,1.43c-1.5.26-5.23.14-6.39,1.39-2.09,2.24,3.15,8,4.07,10.49,1.6,4.39,3,8.87,4.45,13.3,1,3,2.21,4.55,4.16,7,.63.8,2.79,2.67,2.86,3.66.06.82-.84,1.78-1.39,2.6a.1.1,0,0,0,0,.13c2.76,3,4.89,7.2,9.09,7.6,3.7.35,7.68.6,11.22,1.77,2.58.85,3.6,2.42,6.54,2.41,2.67,0,3.5-.73,5.31.25a21.51,21.51,0,0,1,4.25,3.07c.86.79,2.17,1.83,2.43,3,.32,1.5-1,2.6-2.88,2.31-2.49-.38-4.63-3.15-7.19-3.81a9.77,9.77,0,0,0-3.18-.25,14.14,14.14,0,0,0-7.09,2.76c-.1.08-.22.17-.12.3,2.53,3.08,4.89,6.89,7.84,9.55,2.3,2.08,6.19,2.9,9.08,4.06,6.94,2.78,13.17,6.62,20.44,8.69,7.6,2.16,15.23,4.5,22.93,6.31a78.42,78.42,0,0,0,20.16,2.07,37,37,0,0,0,9.36-1.18c2.55-.74,4.89-1.86,7.56-2.27,2.23-.34,4.44,0,6.66-.27,2.6-.27,4.07-1.85,6.26-3.47l11.22-8.26s.21-.15.16-.24l-6.53-11.48c-.18-.32-.92,0-1.15.07-4.07,1.88-8.4,3.28-12.42,5.25a24.28,24.28,0,0,0-4.73,3.1c-.52.43-4,3.1-2.09,2.52-2.08.65-5.45,0-7.61,0-3.6,0-7.22.08-10.82,0a34.3,34.3,0,0,1-7.5-1.09c-6.29-1.54-11.44-5.6-17.57-7.21a42.88,42.88,0,0,0-5.86-.77c-3.32-.41-4.43-1.67-6.32-4.18-2.66-3.52-5.44-6.94-8.25-10.33l-1.36.51c2.74,1.77,5.32,3.79,8.38,4.9,3.62,1.31,6.79,2,9.88,4.3a80.06,80.06,0,0,0,7.83,5.74c4.25,2.42,9.45,2.51,14.18,2.1,3.72-.32,7.35-1.25,10.78.65.89.49,1.44,1.19,2.5,1.28a4.71,4.71,0,0,0,2.21-.63c3.17-1.42,6.13-3.48,9.31-5,5.33-2.48,15.19-1,18.58-7.06,2.9-5.21,10.93-8.29,11.93-14.64.41-2.62-1.09-5.46-2.14-7.77-1.72-3.8-4-8-7.31-10.75-.25-.21-1.43,0-1.41.45.1,1.39-7.56-.23-9.23-1-4-1.78-6.81-5.57-11-6.54-2.52-.58-5.41-1.3-7.35-3.35-.26-.27-.64-.33-.52-.2s.24-.2.18-.26c-1.12-1.11-2.87-4.62-4.77-4.28-.1,0-1,.22-.85.49.52,1.21-2.9-.33-3.6-.6-3.53-1.38-6.73-3.4-10.16-5a40.85,40.85,0,0,0-14.63-3.49c-1.94-.12-4.6.21-6.44-.4a7.34,7.34,0,0,1-2.76-2.18c-2-1.95-4-3.87-6-5.71-1-.88-2-1.76-3-2.55-.25-.19-3.63-2.74-3-2.84.15,0,1.06-.26.81-.55l-3.32-3.8-7.29-8.34c-1.27-1.45-3.28-3.08-4.1-4.88-2.73-6-4.46-13.07-9-18.14-2-2.3-4.81-4.7-4.63-8,.13-2.42,2.18-4.12,2.43-6.47.48-4.54-4.59-8.18-8.63-8.53-6.67-.58-11.18,6.78-15.21,10.95-5.6,5.79-12,11-17.91,16.44l1.38-.23a45.84,45.84,0,0,1,.82-7.9c.56-2.55,2.07-4.71,3.12-7.1,3.67-8.33,8.25-18.07,19.08-16.64.28,0,1.19-.12,1.19-.51,0-7,1.23-13.91,2.19-20.89.31-2.22.45-4.5.8-6.71a21.42,21.42,0,0,1,2.67-7.92c.44-.71,3-3.06,3.07-4.36.12-2.22-3.32-2.83-4.91-3.33-6.06-1.89-12.58-4.68-18.86-5.5-.64-.08-3-.51-3.4.5-.51,1.25,1.87,1.83,2,2.75l1.19-.51c-4.55-.49-7.72,7.55-9.68,10.59-4.08,6.35-7.64,11.72-15.32,13.52a11.07,11.07,0,0,1-2.32.55c-.07,0-.26.18-.3.15,1.14.71.49-2.17.47-2.41-.3-3.41,1-5.47,2.38-8.6,2.44-5.34,5.85-8.23,11.13-10.88,4.55-2.29,9.58-3.49,14.24-5.53,5-2.21,9.5-6.49,12.75-10.83,2.16-2.89,5.2-7,4.71-10.87-.23-1.84-2.38-5.82-4-6.77-1.93-1.12-4.76-.11-6.71.22-3.81.64-7.84.22-11.71,0-2.22-.11-8.92.13-7.43-3.2,1-2.23,5.13-5.26,7.08-6.65,2.8-2,6.62-2.25,9.4-4.06,1.67-1.09,2.71-3.13,3.92-4.73s2.52-3.33,3.91-4.89c2.87-3.21,7-3.05,11.06-3.75a27.75,27.75,0,0,0,7.6-2.17c.08,0,.35-.18.3-.31l0,0c-.07-.18-.46-.12-.6-.1a18.48,18.48,0,0,0-6.35,2.61,99.51,99.51,0,0,0-8.35,5.69c-2.43,1.79-6.41,4-8,6.72-2.58,4.27,6.28,1.19,7.78.9,12.95-2.57,26.71-2.4,38.78-8.13,1.83-.87,3.6-2.18,5.48-2.92.7-.27-1.35,0-.17.13a29.69,29.69,0,0,1,3.18.51c7.12,1.44,14.13,4.56,19.28,9.78.59.59,2.82,2.53,2.62,3.46-.29,1.36-3.4.77-4.29.67-3.05-.35-6.08-.87-9.15-1-5.75-.33-11.47.88-17.22,1-7.48.19-14.88.58-22.34,1.19-1.85.15-10.07-.32-10.67,1.29-.46,1.23.67,4.46.85,5.75.34,2.48,1,5.22.82,7.73-.25,3.81-.51,7.64-.43,11.55.1,4.82.34,17.24,7,17.29,2.95,0,6.26-1.29,9.27-1.53,2.69-.21,5.45,0,8.13-.3,3.8-.38,7.67-1.75,11.4-2.58,9.8-2.17,19.7-4.21,29.71-5,3.28-.27,24.21-2.73,25,.12.58,2.23-6.29,4.78-7.45,5.33-4.59,2.2-9,4.14-14.06,5a90.23,90.23,0,0,0-8.9,2.14c-7.17,2-14.16,4.8-21.51,6.08-7.19,1.25-14.56,2.06-21.56,4.22a29.63,29.63,0,0,0-9.73,4.86c-3.51,2.88-2.58,8.74-2.53,12.78.06,5-.6,8.33,2.57,12.61,2.5,3.37,5.61,6.94,9.75,8.11,3.21.91,4.07,2.48,5.23,5.57.63,1.68.91,3.45,1.48,5.13.8,2.32,2,4.57,2.95,6.82,3.76,8.63,7.33,17.38,11.32,25.9,3,6.44,7,13.94,13.94,16.28a84.46,84.46,0,0,0,14.48,3.7c2.19.32,6.2,1.06,8.13-.64.91-.8,1-2,1.42-3.07,1.47-3.52,4.17-6.63,6.76-9.38s6.09-6.57,9.74-8.19l1.66-.33q2.18-1.26,1.6.65a5.19,5.19,0,0,1-.37,1.36,28.75,28.75,0,0,1-1.53,3.69c-1.93,4.29-3.46,8.63-5.48,12.88-3.26,6.85-4.73,12.48-2.27,19.91,1,3,1.49,6,4.51,6.88,3.84,1.07,8.19,1.31,12.14,1.66,6.15.55,17.66,2,22.14-3.67,4.32-5.5,4.81-15.76,3-22.24a37.37,37.37,0,0,1-1.87-11c0-4.1.68-8.46-.2-12.5A10.49,10.49,0,0,0,390,400.1c-1.43-1.48-2.45-3.7-4.25-4.72-2.67-1.52-5.06-1.35-7.33-4-1.13-1.3-2-3.18-3.91-3.41a6.25,6.25,0,0,0-2.68.69c-4.88,1.69-9.82.92-14.85.31-3.32-.4-10.37-.36-13.07-2.88s1.1-6.09,3.75-7.25c.4-.17-1.13.2.25.06.78-.08,1.63,0,2.41,0h7.89c2.76,0,6.76-.37,8.55.37,4.62,1.89,9,4.82,13.43,7.19,2.6,1.4,6,4.24,9.09,4.24a11.91,11.91,0,0,0,7.58-3.52,6.47,6.47,0,0,0,1.07-3.89c.07-4.68-2-9-1.66-13.85a41.51,41.51,0,0,0-.51-11.28c-.92-4.74-2.21-6.54-6.58-8.29C379.5,346,365,341,354.69,345.24a26.89,26.89,0,0,0-6,3.78c-2.66,2-5.05,2.39-8.29,2.4-6.52,0-15.12-1-18.66-7.36-2-3.56-.94-6,3.49-6.28,3.17-.22,6.36,0,9.54-.25a40.27,40.27,0,0,0,6.4-1.08c4-.94,7.43-1.82,11.45-1.36,2.37.27,4.68.92,7,1.31,3.17.53,6.62-.11,9.69.65,5.22,1.29,9.91,4.88,14.34,7.77,1.85,1.2,6.34,4.9,8.95,3,3.36-2.43-2.38-10.26-2-13.58.24-2.24,1.19-4.17,1.28-6.47a33.77,33.77,0,0,0-.71-8.21,50,50,0,0,1-1.51-12.44,38.39,38.39,0,0,1,.85-6.87c.28-1.27,1.16-2.83,1.14-4.11,0-2.54-2.91-3.6-4.56-5.07a19.4,19.4,0,0,0-5.16-3.75c-6.28-2.84-13.66-3.58-20.47-3.85-6.06-.23-13.11-.55-18.93,1.52-2.62.93-2.83,2.18-4.44,4-3.92,4.53-16.6,1.09-21-1.62-1.92-1.17-4.24-3.48-2.83-6,.69-1.23.84-.78,2.5-1a20.75,20.75,0,0,0,5.51-1.89c4.78-2.24,8.54-3.83,13.75-2.74,1.69.35,3.34.23,5,.51,4.42.73,8.77,2.64,12.88,4.37s6.83,2.21,11.17.41a42.27,42.27,0,0,0,12.52-8.5c2.44-2.31,4.44-4,3.52-7.42a31.7,31.7,0,0,0-8.64-14.25c-3.92-3.55-10.36-3.31-13.18-8.23l-1.32.49a42.4,42.4,0,0,0,13.85,1.19c1.33-.08,3.55-.61,4.87-.28s.35-.53.78,1c1.53,5.23,1.45,11.57,2,17,.72,6.8.29,14.15,3.83,20.31a9.41,9.41,0,0,0,12.83,3.8c.07,0,.45-.25.26-.37-1.19-.76-2.72-.16-3.56-1.7-.64-1.18,0-4.16-.27-5.57-.5-2.63-9-17.82-5.85-18.42.17,0,1-.24.81-.55l-10.32-14c-1.9-2.59-4.79-5.41-6.13-8.34-1-2.21-.46-5.31-.46-7.81a.17.17,0,0,0-.13-.1l-19.62-8.44c-.31-.13-1.17.07-1.31.42-1.84,4.49-4.14,8.58-9.57,7.81-4.19-.59-8.33-2.13-12.4-3.21-.7-.19-11.23-2-5.85.77l1-.57c-3.46.33-7.08.3-10.51.86s-7.12,2.59-10.37,4.09q-6,2.74-11.93,5.46a34.59,34.59,0,0,1-9.78,2.76,12.1,12.1,0,0,0-2.54.63c-7.63,2.9-13.39,9.12-21.17,11.78-5.11,1.74-9.61,6.12-13.35,9.86a45.65,45.65,0,0,1-7.88,6.75,11.94,11.94,0,0,0-2.8,2.14c-3.32,3.64-5.38,8.41-8,12.55-2.74,4.38-5.24,8.95-8.08,13.27-2.59,3.95-4.68,5.56-5.68,10.35a129.67,129.67,0,0,1-4.82,16.73c-3.35,9.52-6,19.27-9.44,28.76-2.17,6-5.77,11.63-8.38,17.51-.71,1.6-2.12,3.71-2.32,5.46s.5,3.84.72,5.5L189.72,405c.63,4.79.79,10,1.93,14.65,1.45,6,4.63,10.91,4.89,17.15.29,7,.74,14.87-1.32,21.68-.94,3.11-2.16,6-2.71,9.24-.19,1.14-.93,4-.48,5.17.62,1.62,3.59,3.37,4.88,4.51a118.13,118.13,0,0,0,9.92,8.22c10.64,7.46,19.32,17.71,28.27,27.24,3.08,3.29,5.64,6.29,9.41,8.72a133,133,0,0,0,14.8,8.67c4.51,2.16,9.85,6.16,14.94,6.27,6.06.14,12.16,0,18.22,0h8.72c.42,0,1.57-.63.61-.63Z"/><path class="cls-5" d="M197.1,347l8.84-40.35c.9-4.11,1.34-8.81,2.84-12.75,2.58-6.77,7-13.28,10.36-19.69.85-1.61,1.59-3.69,2.74-5.11,1.9-2.33,4.91-4.24,7.18-6.2,4.37-3.77,8.75-9,14.16-11.22,3.77-1.54,7.61-3,11.44-4.34,1-.37,10.15-4.25,10.72-3.53-.38-.48-3.56,7.24-3.6,8-.13,2.1,1.65,4.56,1.42,6.4-.15,1.19-1.76,3-2.34,4l-24.53,42.33a85.79,85.79,0,0,0-5,8.75c-2.86,6.64-4.77,13.86-7.12,20.69-3.4,9.89-6.61,19.84-10.69,29.45-4.86,11.46-6.9,23.75-8.07,36.06-.22,2.32-.21,6.38-1.87,8.23-2.54,2.83-5.25.48-7.3-1.6-2.7-2.73-4.3-7-7.07-9.47-5.27-4.68-11.58,12.84-12.4,16.13-1.4,5.66,2.48,11.93,4.12,17.25,1.55,5,2.08,10.33,3.74,15.29,2.69,8,7.08,15.39,10,23.25,2.63,7.08,8.48,13.37,13.22,19.09,8.22,9.93,18.18,16.53,28.41,24.05,4.44,3.27,5.79,9.32,6.81,14.51.28,1.43,1.51,6.53-1.05,6.28-.64-.06-1.86-1.4-2.39-1.8-9.91-7.47-19.73-15.06-29.79-22.32-7.06-5.11-14.25-10.32-20.52-16.4a21.45,21.45,0,0,1-3.34-3.69c-.31-.5-.57-1-.83-1.52s-.81-.21-.44-.17c1.61.17,3.57,1.75,4.91,2.56,14.92,9,28.86,19.81,43.11,29.85,7.09,5,14.19,10,21.48,14.72,6,3.86,12.25,6.56,18.53,9.88,3.39,1.79,6.33,3.17,10.23,2.82,6-.53,11.76-2.22,17.83-2.61,3.2-.2,16.68.63,15.61-5.3-.55-3-3.34-6.56-4.9-9.14a114.85,114.85,0,0,0-8.4-12.25c-3.25-4.07-8.26-10.82-14.2-8.7-9.8,3.49-25.34,3-29-9-2.36-7.67-4.57-15.39-7-23q-4.54-14.24-9.32-28.4c-1-3.08-2.07-6.16-3.22-9.2-.51-1.36-1-1.91-.61-3,.81-2.39,4.84-5.42,6.53-7.15,3.21-3.26,6.53-6.42,10-9.35,3-2.46,7.39-6.73,11.46-7,3.38-.22,4.64,3.7,5.67,6.35,3.37,8.65,5.05,18.08,6.7,27.18q1.16,6.4,2.09,12.84c.29,2,1.68,6.23,1,8.19-1.22,3.52-16.09,1.82-19.68,1.71-6.94-.2-13.87-.58-20.79-1-3.52-.22-10.09.74-11-3.35-.83-3.77-.21-8-.61-11.86-.25-2.44-1.39-4.46-2.33-6.74a135,135,0,0,1-5.35-15.25c-1.56-5.6-3-11.69-2.19-17.53,1-7.13,4-14.18,6.58-20.83,2.86-7.25,6-14.41,9.2-21.5,1-2.2,1.48-4.12,4-4.69a23.82,23.82,0,0,1,7.64.1c13.54,1.66,19.54,12.12,21.87,24.45,2,10.42,2.85,24.15-2.55,33.78-1.85,3.3-6.52,5.4-1.51,8,5.55,2.93,12.89,3.46,19,4.06a98.48,98.48,0,0,0,22,.14c2.55-.33,8.75-.89,9.16-4.36.15-1.3-1-3.16-1.43-4.3-1.11-2.68-2.31-5.32-3.51-8-7.62-16.71-15.71-33.2-23.45-49.86-3.34-7.19-6.7-14.39-9.7-21.73a50.38,50.38,0,0,1-2.43-6.56c-.54-2.15.25-3,1.13-5,7.77-18.1,18.62-35.34,29.57-51.73a78,78,0,0,1,6.78-9.24c1.61-1.78,3.41-1.89,5.07-3.38,3.68-3.31,4.44-10.08,5.43-14.61a40.5,40.5,0,0,1,5.11-11.94c3.73-6.38,8-14.61,13.83-19.2,2.81-2.21,5.22-4.86,7.87-7.26,1.87-1.7,4.06-4,6.48-4.8,5.09-1.75,7.6,2,10.11,5.52a12.9,12.9,0,0,0,4.13,3.91c3.11,1.91,4.44,3.58,5.22,7.31a43.58,43.58,0,0,1-.37,17.9c-2.09,9.52-1.74,17.54.52,27.16,1.55,6.59,2.52,12.9,1.42,19.66-.57,3.49-1.79,7-1.69,10.58.19,7,6.73,14.8,13.22,17.06,2.41.84,2.57,1.17,2.77,3.93.45,6.21.28,12.44.78,18.65.7,8.75,2.44,17.17,1.44,26-.47,4.13-2.29,7.85-2.94,11.91-.9,5.6.48,11.37,1.43,16.87.41,2.38.6,3.32-.36,5.34-2.23,4.69-2.77,9.82-4.12,14.8-1.64,6-4.46,11.4-7.63,16.75-2,3.35-4,6.77-4.35,10.73-.27,3,.4,5.76-1,8.57-1.95,3.9-6,6.37-10.18,7.27-7.72,1.65-10.48-3.25-13.33-9.17-4.69-9.7-9.47-19.37-13.69-29.29a42,42,0,0,1-3.16-9.06c-.25-1.47-.42-3-.69-4.45-.45-2.45-1.26-4.48,1.26-5.61,4.55-2,11.85,4.07,14.83,7.35,3.41,3.75,6.15,8.09,9.3,12,4.78,6,10.41,11.15,15.5,16.86,2,2.24,3.48,4.82,5.38,7.08,2.5,3,7.34,3.91,11,4.68,7,1.49,14.2,2.21,21.2,3.76,2.78.62,4.71,1.11.69,1.63-6.73.86-13.61.84-20.38,1.07-12.19.42-24.43,1-36.55,2.49-8.91,1.1-17.41,3.66-26.22,5.27-2.76.5-4.73,1.27-7.25,0-3.55-1.73-7-3.88-10.41-5.8l-5.2-2.89c-.61-.34-3.35-1.37-3.64-2,0,0-.24-.09-.25-.14-.33-1.55,1.92-1.16,2.28-1,.92.29,2,1.52,2.8,2.1q4.33,3.25,8.62,6.55c6.43,4.94,12.81,9.95,19.08,15.09,5,4.09,9.92,8.56,15.76,11.43a23.65,23.65,0,0,0,9.37,2.38c4.61.25,9.14.78,13.73,1.1a41.46,41.46,0,0,0,14.26-1.78c2.3-.63,4.09-.85,5.92,1.15,2.91,3.17-.28,5.63-1.6,8.59a9.46,9.46,0,0,0-.59,3.06c-.36,2.87-1.62,3.63-4.29,5.24-6.63,4-14.31,6-21.87,7.35-3.67.68-8.91,2.3-12.64,1.45-3.34-.76-6.88-3.18-10-4.62-4.74-2.19-10.42-.95-15.52-.77l-12.69.43c-2.3.08-3.59.29-5.47-1-6.14-4.33-11.55-9.71-17.59-14.18-4.08-3-10.68-3-15.54-3.91-4.2-.81-6.16-.89-7-5.64-.9-5.38-1.35-13.37,3.51-17.17,3.16-2.47,8.12-1,11.65-.13a113.39,113.39,0,0,1,13.92,4.67c8.66,3.41,17.11,7.34,25.46,11.45,4.52,2.22,7.7,4.54,12.85,3.85,8.87-1.18,17.64-4.12,26.16-6.75,4.13-1.27,7.38-3.78,10.5-6.73,2.47-2.34,2.47-3.49,2-6.7-1.16-8.61-2.11-17.28-2.47-26a70.11,70.11,0,0,1,.36-13.5,11.43,11.43,0,0,1,1.08-4.11c.9-1.43,1.63-1,3-1.59,5.86-2.33,5-12.2,4.94-17.29-.07-3.83.13-8.38-.83-12.11-.54-2.1-1-2.29-2.84-3.06-6.72-2.86-13.66-5.31-20.47-8-10.28-4-20.27-8.46-31-10.94l-24.81-5.73c-1.86-.43-4.29-.58-6-1.39-2.05-1-3.88-3.05-5.59-4.48-6.1-5.09-12.61-9.91-18.4-15.34-1.72-1.61-2.36-3.5-3.28-5.69-2-4.68-3.9-9.38-5.75-14.11a133.63,133.63,0,0,1-4.84-13.59c-1.36-5-1.86-10.27-2.9-15.36a63.73,63.73,0,0,0-5-14.42c-2-4.45-2.12-10.1-2.33-14.9-.32-7.25,1.78-12.82,3.93-19.76.82-2.63,1.27-6.67,3.06-8.85,2.07-2.51,6.06-4.45,8.69-6.38,4.91-3.61,12.78-3.3,18.67-4.23a103.38,103.38,0,0,0,15.76-3.84c6.5-2.06,13-3.94,19.6-5.64,6.88-1.77,12.48-8,17.8-12.48,1.6-1.33,3.24-3.58,5.47-2.5,1.6.77,3.26,3.27,4.25,4.67a28.47,28.47,0,0,1,4.81,19.87c-2,15.48-12.09,31.29-24.22,40.83-8.25,6.48-18.62,10.81-28,15.29q-15,7.14-30.29,13.64c-5.82,2.46-12.41,6.1-18.75,6.95-10.11,1.36-20.16,4.2-28.76,10A26.05,26.05,0,0,0,213,330.39c-3.56,7.09-9.27,11.82-15.91,15.88-3.05,1.87-4.11,5.1-5.33,8.45a20.85,20.85,0,0,0-1.59,7.12c0,2.1,1,3,1.66,4.72,1.7,4.32-2.94,9.63-5.44,12.86-1.77,2.29-5.51,5.09-6.1,8-.69,3.36.48,8.07.68,11.46l3,51.3c.27,4.59-.31,10.34.88,14.81.52,1.95,1.6,2.26,3.43,3q6.13,2.52,12.32,4.89c8.91,3.41,18.41,7.56,27.94,8.82,9.89,1.31,15.94-7.46,24.87-9.88A24.72,24.72,0,0,0,264,466a52.27,52.27,0,0,1,4.4-4.05c3.56-2.48,4.76.15,5.58,3.54C277,477.67,266.43,488,258,495.16c-3.59,3-7.46,5.55-11.21,8.34-3,2.2-1.93,3.71-.2,6.74,3.56,6.25,9.63,14.69,17.91,13.29,7.53-1.27,14.88-9.71,20-14.73,7.65-7.47,15-15.65,20.43-24.92,4-6.91,6.43-13.42,2.4-20.73a166.49,166.49,0,0,0-20.71-28.74,119.35,119.35,0,0,0-13.24-13.23c-3.78-3.15-8-5.49-12-8.3-8.87-6.22-17.53-13.6-24.24-22.15-2.13-2.72-5.58-6.9-5.13-10.67s5.94-4.9,8.95-6c9.81-3.47,20.77-6.09,31.24-5.47,4.49.27,9.74,1.23,12.81,4.85,3.74,4.43,4.67,12.37,6.41,17.77,3.54,11,7.26,25.66,16.71,33.23a28,28,0,0,0,25.73,4.26c10.58-3.76,12.94-15,11.2-25.14-1.09-6.35-4.75-12.18-5.74-18.46-.3-1.93.24-4.12.44-6L341,366.35c.57-5.5,1.74-11.27,1.65-16.8-.05-3.39-.47-6.66-.11-10.07a23.86,23.86,0,0,1,1.37-6.17c1.57-4,4-5,8.14-5.8,7.51-1.38,10.47-7.49,11.41-14.65.75-5.7-1.3-9.74-3.24-15.11l-4.41-12.21A18.7,18.7,0,0,0,354,281c-2.94-4.13-7.63-7.69-11.19-11.28l-18.29-18.44c-3.21-3.23-6.67-8.2-10.56-10.64-3.47-2.18-6.6,2.78-8.75,4.91L290.9,259.65h1.3c.15-.56-.12-1.39-.91-.86-2.18,1.47-3.29,4.72-4.46,7a48.84,48.84,0,0,1-16.92,18.93c-4.35,3-7.27,6.38-11.07,9.89-4.57,4.22-10.55,6.3-15.22,10.16-1.67,1.38-2.75,3.58-3.94,5.37-5.93,9-11.66,18.05-17.1,27.32-6,10.21-12,20.71-16.19,31.81-1.95,5.13-2.63,10.21-3.79,15.55-1.1,5.05-3.12,9.65-4.8,14.5-2.31,6.66-3.06,14-3.12,21,0,5.48.51,11.51,3.47,16.28,2.19,3.53,6.37,5.64,9.4,8.47l39.3,36.74c.35.33,1.71-.22,1.35-.55l-32.57-30.45c-3.55-3.32-7-7.45-11.09-10.14-8.63-5.7-8.89-16.39-8.15-26a61,61,0,0,1,3.42-17.11,89.73,89.73,0,0,0,4.52-14.36,108.32,108.32,0,0,1,10.61-29.61c5.45-10.52,11.54-20.7,17.85-30.72q3.68-5.85,7.48-11.63c1.36-2.07,2.65-4.78,4.62-6.33,4.76-3.74,10.52-6,15.1-10.13,1.91-1.74,3.3-3.92,5.22-5.64a72.26,72.26,0,0,1,7.13-5.12c6-4.14,10.85-8.81,14.31-15.25,1.14-2.13,4.4-6.31,4.77-8.83.12-.82-.44-.92-.66-.08-.14.54,1.13.16,1.3,0l14.58-14.44c1.38-1.37,3.76-5.08,5.94-4.25,1.14.43,2.54,2.56,3.38,3.41l33.68,33.94c3.14,3.17,4,5.36,5.58,9.68,2.25,6.24,5.79,13,7,19.49.57,3-.25,6.74-1,9.58a17.31,17.31,0,0,1-2.83,6.07c-2.36,3-5.65,2.92-9,3.69-7.09,1.6-8.31,10.14-8.43,16.22-.1,5,.1,9.49-.42,14.49L338,381.91c-.51,4.89,1.67,9.2,3.28,13.81,3.46,9.86,5.71,25-5.14,31.18-6.48,3.7-15.24,3-21.85,0-5.79-2.62-9.42-7.31-12.37-12.79a123.12,123.12,0,0,1-7.87-19.45c-2.1-6.29-3.4-13.44-6.29-19.41-3.26-6.72-12-7.55-18.63-7.42-9.24.18-18.55,2.3-27.28,5.23-4,1.35-11.86,2.9-11.33,8.47.77,8.1,10.53,16.11,16,21.11,7.67,7,16.54,11.91,24.54,18.35,9.9,8,18.21,18.16,25.62,28.42,5.09,7,13.39,16.09,10.9,25.4-2.67,10-10.42,19-17.22,26.48A160.59,160.59,0,0,1,278,513.6c-3.21,2.85-7.5,7.42-11.7,8.71-7,2.14-12.41-3.66-16-8.86a25.3,25.3,0,0,1-3.4-5.72c-.78-2.33-.06-3.28,1.89-4.59,7.92-5.32,15.74-11.51,21.51-19.19,2.86-3.8,5.41-8.24,5.79-13.08.22-2.84-.15-9.07-3-10.81-1.5-.92-3.15-.14-4.48.72-3.68,2.38-6.25,6.17-10.07,8.42-4.59,2.71-10,3-14.52,6.07-5.32,3.57-9.6,6.7-16.35,5.35-10.42-2.07-20.59-6.34-30.44-10.22-2.79-1.1-8.22-2.17-10.14-4.57-.9-1.13-.73-2.1-.82-3.58l-2.74-46-1.35-22.67a35.58,35.58,0,0,1-.34-5.75c.29-2.55,2.71-4.4,4.32-6.35,2.73-3.32,5.92-7.11,7.2-11.3,1.2-3.94-2-6.11-1.55-10.13.62-5.15,2.94-11.21,7.32-14,4.73-3,9.07-6.35,12.43-10.91,1.9-2.58,2.95-5.49,4.6-8.19a24.56,24.56,0,0,1,8.07-7.53A64.68,64.68,0,0,1,242.07,312c3.51-.94,7.09-.95,10.56-1.83a68.93,68.93,0,0,0,7.94-2.81A558,558,0,0,0,316.05,282c10.53-5.49,19.27-12.18,26.16-22,7.36-10.52,14.06-24.55,11-37.67-.92-3.9-6.54-18.09-12.68-14.79-7.19,3.86-12,12.63-20,15.09-6.43,2-13,3.5-19.4,5.54a110.48,110.48,0,0,1-16.76,4.13l-12.64,2a14.8,14.8,0,0,0-4.81,1.15c-3,1.56-5.69,4.18-8.39,6.17-1.63,1.2-2.78,1.89-3.53,3.75-1.44,3.53-2.3,7.43-3.43,11.07-.91,2.92-2.25,6-2.79,9s0,6.39.15,9.35c.29,4.46.56,9.41,2.6,13.48,4.81,9.57,4.79,20,7.83,30.12,2.84,9.44,6.9,18.6,10.72,27.67,2.17,5.14,6.44,7.69,10.71,11.25l10,8.31c1.79,1.49,3.62,3.54,5.65,4.71,4,2.33,10.19,2.61,14.65,3.64,7.53,1.74,15.09,3.35,22.59,5.21a86.18,86.18,0,0,1,10.18,3.72l24.62,9.56c3.59,1.4,12.49,2.93,13.63,7.07,1,3.68.76,8.33.83,12.11.07,4.13.44,10-1.61,13.81-1.36,2.53-3.52,1.77-5.32,3.38s-2,4.89-2.28,7.1c-.93,8.64,0,17.57.87,26.18q.59,5.84,1.38,11.66a13.93,13.93,0,0,1,.44,3.16c-.37,2.88-4.78,5.76-6.94,7.21-3.91,2.64-9,3.59-13.47,4.89a142.34,142.34,0,0,1-15.7,3.88c-6.29,1.05-10.66-2.34-16.19-5-8.64-4.18-17.41-8.19-26.43-11.5-6-2.18-13.71-5.46-20.22-4.28-7.54,1.37-8.5,10.84-7.86,17,.28,2.66.24,6.32,2.91,7.51,2.88,1.27,7,1.34,10.06,1.93,2.76.53,6.47.6,9,1.94,2.29,1.23,4.4,3.55,6.42,5.17l10,8.06c1.49,1.2,2.87,2.78,4.82,3.11,2.18.37,4.91-.17,7.11-.24l13.45-.45c2.48-.08,5.5-.67,8-.27,3.11.51,6.46,2.83,9.29,4.14,2.25,1,3.7,1.88,6.16,1.75a92.14,92.14,0,0,0,13.62-2.1,69.69,69.69,0,0,0,16.74-5.3c2.61-1.29,7.38-3.23,8.28-6.41.25-.89-.12-1.88,0-2.8.42-2.34,2.61-3.77,3.25-6,.85-3-1.83-6.08-4.77-6.62-1.49-.27-1.94.22-3.18.59a39.29,39.29,0,0,1-10.8,2c-5.11.07-10.24-1-15.38-1.15-12.69-.32-21.62-10.07-31-17.57q-8.86-7.11-17.91-14-3.64-2.77-7.29-5.5c-1-.78-2.19-2-3.59-2-2.4,0-3.33,2.23-1.74,3.87s4.73,2.64,6.65,3.71l11.31,6.3c1.58.88,2.87,1.87,4.73,1.87,3.3,0,7-1.29,10.28-1.88a56.41,56.41,0,0,0,6.68-1.39c12.7-4,26.69-4.31,39.92-5,8-.4,16.08-.52,24.12-1,3.08-.17,7.2.14,10.11-1.05,3.63-1.49-.88-2.3-2.72-2.69-7-1.51-14.23-2.25-21.27-3.78-4.25-.92-8.49-2-11-5.67-6.57-9.78-16.12-17.26-23.19-26.72-5.13-6.86-11-15.15-20.39-16.23-12.79-1.48,2.32,28.13,4.05,31.84,2.36,5.07,4.78,10.1,7.21,15.14,1.62,3.35,3,8.18,5.82,10.75,5.54,5.07,15.55,1.68,20.09-3.12,4-4.21,2.29-8.3,3.32-13.36.93-4.55,3.85-8.41,6.1-12.38a58.91,58.91,0,0,0,6.39-16.58,95,95,0,0,1,3.89-12.34c.63-1.74.05-3.46-.27-5.3-1-5.8-2.42-11.92-1-17.78,1.07-4.44,2.59-8.39,2.83-13a83,83,0,0,0-.46-14.06c-1.14-9.37-1.27-18.67-2-28.08-.13-1.79-.07-3-1.6-3.9a16,16,0,0,0-2.23-.58,15.38,15.38,0,0,1-5-3.49c-3.52-3.36-6.91-7.6-7.16-12.65-.21-4.1,1.36-8.19,1.89-12.22,1.63-12.49-4.8-24.11-3.84-36.55.67-8.8,3.7-16.45,2.29-25.56-.35-2.23-.91-4.78-2.35-6.61s-3.68-2.08-5.38-3.62c-3.21-2.92-4.52-8.33-9.51-9-7.11-.93-13,8.29-17.72,12.11s-7.9,8.42-11.25,13.53a122.55,122.55,0,0,0-7.17,12.1c-2.08,4.15-2.65,8.5-3.86,13-.69,2.52-1.44,6.11-3.37,8-1,1-2.39,1.15-3.48,1.93a24.16,24.16,0,0,0-4.82,5.39c-5.84,7.84-10.86,16.33-15.89,24.7-4.59,7.62-9.58,15.21-13.65,23.12-1.14,2.22-2.12,4.51-3,6.83-.7,1.79-2.34,4.26-2.68,6.08a6.24,6.24,0,0,0,.44,2.88c1.72,5.84,4.54,11.47,7,17,7.67,17,15.85,33.81,23.79,50.71,2.85,6.06,5.78,12.11,8.3,18.32.52,1.29,1.69,3.23,1,4.6-1.11,2.14-5.9,2.35-7.92,2.57a103.3,103.3,0,0,1-24.51-.66,73.55,73.55,0,0,1-10.79-2.06c-1.52-.43-5.49-1.28-6.08-3.09s3-4.52,3.92-6.16A34.66,34.66,0,0,0,273,411.19c1.14-10.56.14-22.34-4.17-32.14-4.06-9.24-12.55-13.72-22.39-14.08-2.09-.08-6.21-.52-8.08.85-2.64,1.94-4,7.86-5.26,10.72-3.38,7.65-6.65,15.37-9.44,23.26-1.93,5.45-4,11.2-4,17.06.14,10.63,4.39,21.43,8.53,31.08a16.09,16.09,0,0,1,1.61,6.22c.18,3.45-.44,8.12.59,11.41.94,3,4.36,2.31,7.07,2.5,6.45.45,12.91.83,19.38,1.11,7.21.31,14.56.71,21.77.12,1.64-.13,5.28,0,6.13-2,.56-1.26-.4-4.33-.57-5.62-.53-4-1.15-8.09-1.83-12.11-1.6-9.46-3.35-19-6.32-28.19-1.19-3.66-2.78-10.28-7.72-9.88-6.39.52-12.86,7.23-17.25,11.25-3,2.74-5.87,5.61-8.64,8.57-1,1.1-4.17,3.53-4.44,5.13-.12.71.6,1.8.87,2.51,1.08,2.83,2,5.72,3,8.59,3.19,9.36,6.26,18.76,9.27,28.18,2.48,7.76,4.93,15.53,7.15,23.37,2.43,8.56,10.67,11.82,19,12.14a31.89,31.89,0,0,0,11-1.63c2.47-.77,3.83-.93,6,.47a27.49,27.49,0,0,1,5.22,4.79,93.1,93.1,0,0,1,9.08,12.36c2.14,3.37,4.89,7.15,6.2,11,1.81,5.26-10.11,4.66-13.29,4.86a130.66,130.66,0,0,0-15.85,2.26c-6.51,1.2-10.7-2.11-16.3-4.77-2.92-1.39-5.82-2.57-8.61-4.22-15.07-8.89-29.12-19.7-43.38-29.8-7-5-14-9.93-21.15-14.66-2.63-1.74-7.33-6-10.68-6.07-4-.05.32,4.43,1.43,5.59,6,6.24,13.27,11.42,20.24,16.51,10.06,7.35,20,14.89,29.92,22.38,2,1.49,7.22,6.31,8.31,1.16.5-2.34-.87-6.36-1.44-8.57-.79-3-1.73-6.69-3.54-9.25s-5.25-4.18-7.78-5.89c-12.07-8.11-21.76-18-30.42-29.7-3.51-4.73-5.43-9.12-7.88-14.25-4.15-8.7-7.72-17-9.76-26.43-.75-3.45-1.82-6.83-2.9-10.19s-3.22-7.48-3.71-11.13c-.74-5.5,4-12.18,6.68-16.58.62-1,1.71-2.93,3.29-2.25.49.21,1.06,1.67,1.38,2.16a60,60,0,0,0,3.63,5c1.8,2.2,4.31,5.31,7.34,5.78a4.5,4.5,0,0,0,4.56-2.06c3.36-4.73,2.41-13.1,3.21-18.57,2.3-15.78,8.84-30,14-44.93l5.26-15.27c1.89-5.5,3.35-11.48,5.79-16.76,1.87-4,4.56-7.87,6.79-11.73L252.5,279,263,260.91a13.67,13.67,0,0,0,1.61-2.78c.53-2-.73-2.27-1.22-4.23-1.08-4.33,1.88-7.1,3.64-10.56a.17.17,0,0,0,0-.18c-.91-1.25-7.37,1.72-8.41,2.08-5.67,1.95-11.48,3.87-16.94,6.34-2.74,1.24-4.78,3.43-7.06,5.4-4.38,3.78-9.42,7.33-13.38,11.55-2.05,2.18-3.19,5.35-4.59,8-2.83,5.38-5.83,10.71-8.51,16.17-3.16,6.44-3.72,14.83-5.25,21.79l-7.17,32.71c-.11.5,1.34.27,1.44-.2Z"/><text class="cls-6" transform="translate(331.44 113.45) scale(1 0.95)">MEG<tspan x="-26.27" y="75.79">SPIKES</tspan></text></svg>